<?xml version="1.0" encoding="UTF-8"?>
<svg id="_Слой_2" data-name="Слой 2" xmlns="http://www.w3.org/2000/svg" viewBox="0 0 20.76 30">
  <defs>
    <style>
      .cls-1 {
        fill: #fff;
      }

      .cls-2 {
        fill: #ed2227;
      }
    </style>
  </defs>
  <g id="_Слой_1-2" data-name="Слой 1">
    <g id="Location_address">
      <circle class="cls-1" cx="10.45" cy="10.68" r="9.01"/>
      <rect class="cls-1" x="7.64" y="19.83" width="5.19" height="5.84"/>
      <path class="cls-2" d="M13.9,25c-.25-2.48.96-4.66,1.59-5.59,3.14-1.79,5.27-5.16,5.27-9.03C20.76,4.66,16.11,0,10.38,0S0,4.66,0,10.38c0,3.83,2.09,7.18,5.19,8.98.39.47,2.23,2.88,1.79,5.62-2.5.43-4.22,1.33-4.22,2.37,0,1.46,3.41,2.65,7.62,2.65s7.62-1.19,7.62-2.65c0-1.02-1.66-1.91-4.1-2.35ZM2.36,10.38C2.36,5.96,5.96,2.36,10.38,2.36s8.02,3.6,8.02,8.02c0,3.08-1.74,5.75-4.29,7.09l-.08-.07s-.07.08-.14.17c-1.06.52-2.25.82-3.51.82-4.42,0-8.02-3.6-8.02-8.02ZM9.39,24.72c.12-1.55-.24-2.97-.72-4.12.56.09,1.13.15,1.71.15.63,0,1.25-.07,1.85-.17-.45,1.17-.78,2.59-.71,4.14-.37-.02-.75-.03-1.14-.03-.34,0-.66.01-.99.02Z"/>
    </g>
  </g>
</svg>