<?xml version="1.0" encoding="UTF-8"?>
<svg id="_Слой_2" data-name="Слой 2" xmlns="http://www.w3.org/2000/svg" viewBox="0 0 99.7 154.35">
  <defs>
    <style>
      .cls-1 {
        fill: #fff;
      }

      .cls-2 {
        fill: #ee2227;
      }
    </style>
  </defs>
  <g id="_Слой_2-2" data-name=" Слой 2">
    <g id="marker_map" data-name="marker map">
      <g>
        <circle class="cls-1" cx="49.75" cy="49.73" r="48.1"/>
        <path class="cls-2" d="M99.7,49.85C99.7,22.36,77.34,0,49.85,0S0,22.36,0,49.85s21.35,48.81,47.97,49.8v54.7h3.7v-54.7c26.65-.96,48.03-22.93,48.03-49.8ZM49.85,97.7c-26.38,0-47.85-21.47-47.85-47.85S23.47,2,49.85,2s47.85,21.47,47.85,47.85-21.47,47.85-47.85,47.85Z"/>
        <path class="cls-2" d="M25.44,38.91v34.93h6.95v-22.63h34.85v22.63h6.94v-34.92l-23.84-14.15-24.91,14.14h.01ZM72.79,72.44h-4.14v-29.99H31v29.99h-4.16v-32.72l23.5-13.34,22.45,13.33v32.73Z"/>
        <path class="cls-2" d="M44.8,36.03v4.05c0,.67.55,1.22,1.22,1.22h7.83c.68,0,1.22-.55,1.22-1.22v-4.05c0-.67-.55-1.22-1.22-1.22h-7.83c-.68,0-1.22.55-1.22,1.22ZM54.02,36.03v4.05c0,.1-.08.17-.17.17h-7.83c-.1,0-.17-.08-.17-.17v-4.05c0-.1.08-.17.17-.17h7.83c.1,0,.17.08.17.17Z"/>
        <path class="cls-2" d="M53.62,62.54h-12.23v11.31h25.34v-22.01h-13.11v10.71h0ZM42.79,72.45v-8.51h3.4v2.93h6.91v5.58h-10.31ZM65.33,72.45h-10.31v-5.58h6.91v-2.93h3.4v8.51ZM55.02,53.23h3.4v2.93h6.91v5.58h-10.31s0-8.51,0-8.51Z"/>
      </g>
    </g>
  </g>
</svg>