<?xml version="1.0" encoding="UTF-8"?>
<svg id="_Слой_2" data-name="Слой 2" xmlns="http://www.w3.org/2000/svg" viewBox="0 0 100 155">
  <defs>
    <style>
      .cls-1 {
        fill: #fff;
      }

      .cls-2 {
        fill: #ee2227;
      }

      .cls-3 {
        fill: #afafaf;
      }
    </style>
  </defs>
  <g id="marker_map">
    <g id="marker_map-2" data-name="marker_map">
      <g>
        <ellipse class="cls-1" cx="50" cy="49.95" rx="50" ry="49.95"/>
        <g>
          <path class="cls-3" d="M74.38,74.48h-6.94v-29.99h-34.85v29.99h-6.95v-34.93l24.91-14.14,23.84,14.15v34.92ZM68.83,73.08h4.14v-32.73l-22.45-13.33-23.5,13.34v32.72h4.16v-29.99h37.65v29.99Z"/>
          <path class="cls-3" d="M54.03,41.95h-7.83c-.68,0-1.22-.55-1.22-1.22v-4.05c0-.67.55-1.22,1.22-1.22h7.83c.68,0,1.22.55,1.22,1.22v4.05c0,.67-.55,1.22-1.22,1.22ZM46.2,36.5c-.1,0-.17.08-.17.17v4.05c0,.1.08.17.17.17h7.83c.1,0,.17-.08.17-.17v-4.05c0-.1-.08-.17-.17-.17h-7.83Z"/>
          <g>
            <g>
              <path class="cls-3" d="M54.68,74.49h-13.11v-11.31h13.11v11.31ZM42.97,73.09h10.31v-8.51h-10.31v8.51Z"/>
              <rect class="cls-3" x="46.37" y="64.28" width="7.27" height="3.24" transform="translate(100.02 131.79) rotate(-180)"/>
            </g>
            <g>
              <path class="cls-3" d="M66.91,63.78h-13.11v-11.31h13.11v11.31ZM55.21,62.39h10.31v-8.51h-10.31v8.51Z"/>
              <rect class="cls-3" x="58.61" y="53.57" width="7.27" height="3.24" transform="translate(124.49 110.38) rotate(-180)"/>
            </g>
            <g>
              <path class="cls-3" d="M66.91,74.49h-13.11v-11.31h13.11v11.31ZM55.21,73.09h10.31v-8.51h-10.31v8.51Z"/>
              <rect class="cls-3" x="54.84" y="64.28" width="7.27" height="3.24"/>
            </g>
          </g>
          <rect class="cls-3" x="31.88" y="43.79" width="36.25" height="8.06"/>
        </g>
      </g>
      <rect class="cls-2" x="48.15" y="98.71" width="3.7" height="56.29"/>
    </g>
  </g>
</svg>