<?xml version="1.0" encoding="UTF-8"?>
<svg id="_Слой_2" data-name="Слой 2" xmlns="http://www.w3.org/2000/svg" viewBox="0 0 30 30">
  <defs>
    <style>
      .cls-1 {
        fill: #fff;
      }

      .cls-2 {
        fill: #ec1b21;
      }
    </style>
  </defs>
  <g id="_Слой_1-2" data-name="Слой 1">
    <g id="marker_location">
      <circle class="cls-2" cx="15" cy="15" r="15"/>
      <g>
        <path class="cls-1" d="M14.91,15.42h-.07c-1.17,0-1.79-.98-1.84-1.94-.05-.92.47-1.91,1.74-2.04.08,0,.16-.01.24-.01,1.18,0,1.82.92,1.92,1.77.05.44-.03.91-.27,1.31-.11.19-.08.43.09.56l.03.02c.21.16.5.11.64-.1.56-.84.55-1.8.3-2.51-.42-1.18-1.51-1.95-2.77-1.95-.12,0-.25,0-.37.02-1.19.13-2.24,1.16-2.45,2.4-.14.84.08,1.66.63,2.31.57.67,1.42,1.07,2.27,1.07.03,0,.05,0,.08,0,.33,0,.51-.27.46-.59-.04-.23-.24-.34-.63-.31Z"/>
        <path class="cls-1" d="M14.65,22.59c.23.26.53.22.79-.08.69-.91,5.34-6.28,5.79-8.03.82-3.25-1.53-6.59-5.11-7.15-5.47-.85-9.41,4.58-6.55,8.9l5.08,6.36ZM19.54,15.53l-4.45,5.57s-.07.03-.09,0l-4.57-5.62c-1.7-2.75.04-6.38,3.41-7.05,4.47-.88,7.91,3.43,5.7,7.1Z"/>
      </g>
    </g>
  </g>
</svg>