<?xml version="1.0" encoding="UTF-8"?>
<svg id="_Слой_2" data-name="Слой 2" xmlns="http://www.w3.org/2000/svg" viewBox="0 0 30 30">
  <defs>
    <style>
      .cls-1 {
        fill: #4c75a3;
      }

      .cls-2 {
        fill: #fff;
        fill-rule: evenodd;
      }
    </style>
  </defs>
  <g id="_Слой_1-2" data-name="Слой 1">
    <g id="social_vk">
      <circle class="cls-1" cx="15" cy="15" r="15"/>
      <path id="path2442" class="cls-2" d="M14.79,20.44h1.06c.09,0,.17-.01.26-.03.11-.03.26-.09.36-.19.16-.18.16-.51.16-.51,0,0-.02-1.54.69-1.77.71-.22,1.61,1.49,2.57,2.15.62.42,1.11.41,1.24.39.03,0,.06,0,.09,0l2.52-.04s1.34-.08.71-1.14c-.05-.09-.37-.78-1.91-2.21-1.61-1.5-1.4-1.25.55-3.84,1.18-1.58,1.65-2.54,1.51-2.95-.12-.34-.81-.31-.97-.29-.03,0-.05,0-.08,0l-2.8.02s-.05,0-.07,0c-.06,0-.22,0-.35.07-.06.04-.12.09-.16.15-.05.07-.09.14-.12.22-.1.26-.52,1.3-1.05,2.2-1.29,2.19-1.8,2.3-2.01,2.17-.49-.32-.37-1.27-.37-1.95,0-2.12.32-3-.63-3.23-.31-.08-.55-.13-1.35-.13-1.03-.01-1.91,0-2.4.25-.33.16-.58.52-.43.54.19.03.62.12.85.43.27.36.29,1.14.29,1.29,0,.02,0,.04,0,.05.02.28.13,2.49-.4,2.78-.39.21-.93-.22-2.07-2.21-.59-1.02-1.03-2.14-1.03-2.14,0,0-.09-.21-.24-.32-.08-.06-.16-.1-.24-.12-.11-.04-.22-.06-.33-.06l-2.62.02s-.41.01-.56.19c-.13.16-.01.49-.01.49,0,0,2.15,5.04,4.59,7.58,2.24,2.33,4.77,2.17,4.77,2.17"/>
    </g>
  </g>
</svg>