<?xml version="1.0" encoding="UTF-8"?>
<svg id="_Слой_2" data-name="Слой 2" xmlns="http://www.w3.org/2000/svg" xmlns:xlink="http://www.w3.org/1999/xlink" viewBox="0 0 30 30">
  <defs>
    <style>
      .cls-1 {
        fill: #fff;
      }

      .cls-2 {
        fill: url(#_Безымянный_градиент_2);
      }
    </style>
    <radialGradient id="_Безымянный_градиент_2" data-name="Безымянный градиент 2" cx="170.13" cy="-172.49" fx="152.33" fy="-172.49" r="42.4" gradientTransform="translate(-202.43 53.44) rotate(-49.2) scale(1 -.81)" gradientUnits="userSpaceOnUse">
      <stop offset="0" stop-color="#f9ed32"/>
      <stop offset=".05" stop-color="#f8d939"/>
      <stop offset=".17" stop-color="#f5a54d"/>
      <stop offset=".33" stop-color="#f0536c"/>
      <stop offset=".4" stop-color="#ee2a7b"/>
      <stop offset=".56" stop-color="#9e2aa7"/>
      <stop offset=".72" stop-color="#5b2acd"/>
      <stop offset=".85" stop-color="#2a2ae8"/>
      <stop offset=".95" stop-color="#0b2af9"/>
      <stop offset="1" stop-color="#002aff"/>
    </radialGradient>
  </defs>
  <g id="_Слой_1-2" data-name="Слой 1">
    <g id="social_instagram">
      <path class="cls-2" d="M30,15c0,8.28-6.72,15-15,15S0,23.28,0,15,6.72,0,15,0c8.28,0,15,6.72,15,15Z"/>
      <g>
        <path class="cls-1" d="M19.06,25.12h-8.13c-3.61,0-6.54-2.94-6.54-6.54v-7.16c0-3.61,2.93-6.54,6.54-6.54h8.13c3.61,0,6.54,2.93,6.54,6.54v7.16c0,3.61-2.93,6.54-6.54,6.54ZM10.94,6.33c-2.81,0-5.09,2.28-5.09,5.09v7.16c0,2.81,2.28,5.09,5.09,5.09h8.13c2.81,0,5.09-2.28,5.09-5.09v-7.16c0-2.81-2.28-5.09-5.09-5.09h-8.13Z"/>
        <path class="cls-1" d="M15,20.82c-3.21,0-5.82-2.61-5.82-5.82s2.61-5.82,5.82-5.82,5.82,2.61,5.82,5.82c0,3.21-2.61,5.82-5.82,5.82ZM15,10.63c-2.41,0-4.37,1.96-4.37,4.37s1.96,4.37,4.37,4.37,4.37-1.96,4.37-4.37-1.96-4.37-4.37-4.37Z"/>
        <path class="cls-1" d="M21.94,9.36c0,.67-.54,1.21-1.21,1.21s-1.21-.54-1.21-1.21.54-1.21,1.21-1.21c.67,0,1.21.54,1.21,1.21Z"/>
      </g>
    </g>
  </g>
</svg>