<?xml version="1.0" encoding="UTF-8"?>
<svg id="_Слой_2" data-name="Слой 2" xmlns="http://www.w3.org/2000/svg" viewBox="0 0 300 55">
  <defs>
    <style>
      .cls-1 {
        fill: #fff;
      }
    </style>
  </defs>
  <g id="_Слой_1-2" data-name="Слой 1">
    <g>
      <g>
        <g>
          <g>
            <path d="M17.66,18.78c-1.22-.51-2.73-.94-4.54-1.31-.07-.01-.14-.03-.22-.04-.08-.01-.16-.03-.22-.04-.05-.01-.11-.02-.15-.03-.05,0-.1-.02-.15-.03-1.5-.28-2.66-.56-3.5-.83-.84-.27-1.53-.69-2.09-1.25-.56-.56-.84-1.34-.84-2.32v-.02c0-1.38.54-2.45,1.63-3.21s2.61-1.14,4.57-1.14c1.13,0,2.27.21,3.42.63,1.15.42,2.29,1.04,3.42,1.85l2.37-3.57c-.97-.68-1.96-1.24-2.97-1.7-1.01-.46-2.04-.81-3.08-1.04-1.04-.23-2.09-.35-3.15-.35-2.23,0-4.14.34-5.73,1.03-1.59.68-2.8,1.68-3.63,2.98s-1.24,2.88-1.24,4.72v.02c0,2.1.45,3.72,1.34,4.85.89,1.14,1.97,1.92,3.22,2.36s2.88.82,4.87,1.16l.33.06s.08.02.13.02.09,0,.13.02c1.29.23,2.35.48,3.18.76s1.5.7,2.02,1.28c.52.58.78,1.35.78,2.32v.02c0,1.38-.57,2.45-1.72,3.21-1.15.76-2.77,1.14-4.85,1.14-1.59,0-3.08-.25-4.47-.74s-2.65-1.22-3.78-2.18L.13,30.85c.97.8,2.01,1.47,3.13,2.02s2.33.96,3.62,1.23c1.29.27,2.65.41,4.08.41,2.31,0,4.29-.34,5.93-1.01,1.64-.68,2.89-1.66,3.75-2.95.86-1.29,1.3-2.85,1.3-4.66v-.04c0-1.95-.41-3.48-1.22-4.61s-1.83-1.94-3.05-2.45Z"/>
            <polygon points="34.61 17.88 28.28 4.68 23.41 4.68 32.39 22.33 32.39 34.2 36.83 34.2 36.83 22.33 45.81 4.68 40.93 4.68 34.61 17.88"/>
            <path d="M64.46,23.67c0,2.06-.53,3.65-1.59,4.78-1.06,1.13-2.56,1.69-4.49,1.69s-3.4-.56-4.46-1.69c-1.05-1.13-1.58-2.72-1.58-4.78V4.68h-4.45v18.84c0,2.31.41,4.29,1.23,5.94.82,1.65,2.02,2.9,3.59,3.76,1.57.86,3.46,1.29,5.66,1.29s4.11-.43,5.69-1.29c1.58-.86,2.78-2.11,3.6-3.76.82-1.64,1.23-3.62,1.23-5.94V4.68h-4.45v18.98Z"/>
            <path d="M82.62,4.68l-11.02,29.52h4.8l2.12-6.13h11.75l2.12,6.13h4.8l-11.02-29.52h-3.55ZM79.99,23.85l4.41-12.73,4.41,12.73h-8.82Z"/>
            <polygon points="119.23 4.68 119.23 26.65 105.9 4.68 101.52 4.68 101.52 34.18 105.88 34.18 105.88 12.55 119.17 34.18 123.59 34.18 123.59 4.68 119.23 4.68"/>
          </g>
          <g>
            <g>
              <rect x="107.06" y="48.11" width="1" height="1"/>
              <path d="M112.94,46.19c.28-.15.5-.37.65-.65.15-.28.23-.61.23-.98s-.08-.7-.23-.98c-.15-.28-.37-.5-.65-.66-.28-.15-.6-.23-.97-.23h-2.61v6.42h.97v-2.69h1.22l1.39,2.69h1.15l-1.5-2.78c.12-.04.24-.07.35-.13ZM110.33,43.6h1.65c.17,0,.31.04.43.12.12.08.22.19.29.33.07.14.1.31.1.5s-.03.35-.1.5c-.07.14-.16.26-.29.33-.13.08-.27.12-.43.12h-1.65v-1.9Z"/>
              <path d="M118.61,42.69v4.12c0,.45-.12.79-.35,1.04-.23.25-.56.37-.98.37s-.74-.12-.97-.37c-.23-.24-.34-.59-.34-1.04v-4.12h-.97v4.09c0,.5.09.93.27,1.29.18.36.44.63.78.82.34.19.75.28,1.23.28s.89-.09,1.24-.28.6-.46.78-.82c.18-.36.27-.79.27-1.29v-4.09h-.97Z"/>
            </g>
            <path d="M102.89,55v-18.34h20.7v18.34h-20.7ZM121.02,52.51v-13.36h-15.57v13.36h15.57Z"/>
          </g>
        </g>
        <g>
          <ellipse cx="199.73" cy="5.19" rx="5.21" ry="5.19"/>
          <path class="cls-1" d="M202.96,2.87c-.16-.16-.41-.16-.57,0l-3.63,3.62-1.68-1.67c-.16-.16-.41-.16-.57,0s-.16.41,0,.57l2.25,2.24,4.2-4.19c.16-.16.16-.41,0-.57Z"/>
        </g>
        <g>
          <ellipse cx="199.73" cy="33.53" rx="5.21" ry="5.19"/>
          <path class="cls-1" d="M202.96,31.21c-.16-.16-.41-.16-.57,0l-3.63,3.62-1.68-1.67c-.16-.16-.41-.16-.57,0s-.16.41,0,.57l2.25,2.24,4.2-4.19c.16-.16.16-.41,0-.57Z"/>
        </g>
        <g>
          <ellipse cx="199.73" cy="19.65" rx="5.21" ry="5.19"/>
          <path class="cls-1" d="M202.96,17.33c-.16-.16-.41-.16-.57,0l-3.63,3.62-1.68-1.67c-.16-.16-.41-.16-.57,0s-.16.41,0,.57l2.25,2.24,4.2-4.19c.16-.16.16-.41,0-.57Z"/>
        </g>
        <rect x="122.86" y="4.67" width="72.6" height="1.02"/>
        <rect x="122.86" y="19.25" width="72.6" height="1.02"/>
        <rect x="121.95" y="33.17" width="72.6" height="1.02"/>
      </g>
      <g>
        <path d="M208.52,4.85h.72v3.83h-.72v-3.83ZM208.85,4.85h2.24v.7h-2.24v-.7ZM210.62,4.85h.72v3.83h-.72v-3.83Z"/>
        <path d="M212.14,5.94h.72v3.85h-.72v-3.85ZM213.08,8.59c-.12-.08-.2-.2-.26-.35l.04-.63c0,.09.02.17.05.23.03.06.08.11.14.15s.13.05.22.05c.14,0,.24-.04.32-.13s.11-.22.11-.38v-.43c0-.17-.04-.3-.11-.39-.07-.09-.18-.14-.32-.14-.09,0-.16.02-.22.05-.06.03-.11.08-.14.15-.03.06-.05.14-.05.24l-.06-.61c.07-.16.17-.28.29-.37.12-.09.25-.13.4-.13.19,0,.36.05.5.14.14.09.24.23.31.41.07.18.11.39.11.65v.44c0,.25-.04.46-.11.64-.07.18-.18.31-.31.4-.14.09-.3.14-.5.14-.16,0-.3-.04-.42-.12Z"/>
        <path d="M215.54,8.58c-.18-.09-.31-.23-.4-.41-.09-.18-.14-.39-.14-.64v-.45c0-.25.05-.46.14-.64.09-.18.23-.31.4-.4.18-.09.39-.14.64-.14s.46.05.64.14c.18.09.31.23.4.4.09.18.14.39.14.64v.45c0,.25-.05.46-.14.64-.09.18-.23.31-.4.4-.18.09-.39.14-.64.14s-.46-.05-.64-.14ZM216.52,7.89c.08-.09.12-.2.12-.36v-.45c0-.15-.04-.27-.12-.36s-.19-.13-.34-.13-.26.04-.34.13c-.08.08-.12.2-.12.36v.45c0,.16.04.27.12.36.08.09.19.13.34.13s.26-.04.34-.13Z"/>
        <path d="M217.79,8.01h2.69v.67h-2.69v-.67ZM217.79,8.01h.64v1.36h-.64v-1.36ZM217.89,8.01h.06c.09,0,.16-.03.21-.08s.07-.13.09-.24c.01-.1.02-.24.02-.42v-1.33h.72v1.51c0,.29-.07.51-.22.66-.15.15-.36.22-.63.22h-.06l-.18-.33ZM218.57,5.94h1.32v.67h-1.32v-.67ZM219.61,5.94h.72v2.73h-.72v-2.73ZM220.06,8.01h.64v1.36h-.64v-1.36Z"/>
        <path d="M221.39,8.51c-.14-.14-.22-.35-.22-.64s.08-.47.24-.61c.16-.14.41-.2.73-.2h.69l.04.55h-.72c-.11,0-.19.02-.25.06s-.08.11-.08.2.03.16.1.2.17.06.31.06c.19,0,.34-.02.43-.07.09-.04.14-.11.14-.2l.06.4c-.01.1-.06.18-.14.25-.08.07-.18.12-.3.15-.12.03-.25.05-.38.05-.29,0-.51-.07-.66-.21ZM222.81,6.94c0-.13-.04-.22-.13-.29s-.2-.1-.36-.1c-.1,0-.2.02-.3.05-.1.03-.19.08-.27.14l-.45-.44c.11-.13.25-.22.43-.29.18-.07.38-.1.6-.1.24,0,.44.04.61.12.17.08.3.2.39.35.09.15.13.33.13.55v1.76h-.66v-1.73Z"/>
        <path d="M224.69,7.25l.66.28-.76,1.15h-.83l.93-1.43ZM223.93,5.94h.76l.69,1.16-.48.47-.96-1.64ZM224.77,6.96h1.97v.7h-1.97v-.7ZM225.39,5.94h.72v2.73h-.72v-2.73ZM226.13,7.11l.69-1.16h.76l-.96,1.64-.48-.47ZM226.15,7.52l.66-.28.93,1.43h-.83l-.76-1.15Z"/>
        <path d="M228.14,8.51c-.14-.14-.22-.35-.22-.64s.08-.47.24-.61c.16-.14.41-.2.73-.2h.69l.04.55h-.72c-.11,0-.19.02-.25.06s-.08.11-.08.2.03.16.1.2.17.06.31.06c.19,0,.34-.02.43-.07.09-.04.14-.11.14-.2l.06.4c-.01.1-.06.18-.14.25-.08.07-.18.12-.3.15-.12.03-.25.05-.38.05-.29,0-.51-.07-.66-.21ZM229.56,6.94c0-.13-.04-.22-.13-.29s-.2-.1-.36-.1c-.1,0-.2.02-.3.05-.1.03-.19.08-.27.14l-.45-.44c.11-.13.25-.22.43-.29.18-.07.38-.1.6-.1.24,0,.44.04.61.12.17.08.3.2.39.35.09.15.13.33.13.55v1.76h-.66v-1.73Z"/>
        <path d="M234.27,6.96v.7h-1.88v-.7h1.88Z"/>
        <path d="M236.9,8.58c-.18-.09-.31-.23-.4-.41-.09-.18-.14-.39-.14-.64v-.45c0-.25.05-.46.14-.64.09-.18.23-.31.4-.4.18-.09.39-.14.64-.14s.46.05.64.14c.18.09.31.23.4.4.09.18.14.39.14.64v.45c0,.25-.05.46-.14.64-.09.18-.23.31-.4.4-.18.09-.39.14-.64.14s-.46-.05-.64-.14ZM237.88,7.89c.08-.09.12-.2.12-.36v-.45c0-.15-.04-.27-.12-.36s-.19-.13-.34-.13-.26.04-.34.13c-.08.08-.12.2-.12.36v.45c0,.16.04.27.12.36.08.09.19.13.34.13s.26-.04.34-.13Z"/>
        <path d="M239.38,6.22c0-.27.04-.5.13-.66.08-.17.21-.3.39-.38.18-.08.41-.12.69-.13.07,0,.12,0,.17-.02.04-.01.07-.04.09-.07s.03-.07.03-.12h.74c0,.19-.03.35-.1.47s-.17.21-.32.27c-.14.06-.33.09-.57.09-.13,0-.24.02-.32.06-.08.04-.14.11-.18.19-.04.09-.06.2-.06.35v.95h-.7v-1ZM239.93,8.58c-.18-.09-.31-.23-.4-.41-.09-.18-.14-.39-.14-.64v-.5l.57-.4c.04-.21.13-.36.25-.47.12-.1.29-.16.5-.16s.41.05.57.14c.16.09.28.23.36.4s.12.39.12.64v.35c0,.25-.05.46-.14.64-.09.18-.23.31-.4.4-.18.09-.39.14-.64.14s-.46-.05-.64-.14ZM240.91,7.89c.08-.09.12-.2.12-.36v-.35c0-.15-.04-.27-.12-.36-.08-.08-.2-.13-.34-.13s-.26.04-.34.13c-.08.08-.12.2-.12.36v.35c0,.16.04.27.12.36.08.09.19.13.34.13s.26-.04.34-.13Z"/>
        <path d="M242.9,8.57c-.19-.1-.33-.24-.42-.43-.1-.19-.15-.42-.15-.69v-.29c0-.27.05-.49.15-.68.1-.19.24-.33.42-.43.19-.1.41-.15.67-.15.15,0,.29.02.42.05.13.03.25.08.36.15.11.07.19.14.26.24l-.47.45c-.07-.06-.15-.11-.24-.14-.09-.03-.18-.05-.28-.05-.18,0-.32.05-.43.15-.1.1-.15.24-.15.41v.29c0,.18.05.32.15.42.1.1.24.15.43.15.1,0,.2-.02.29-.06.09-.04.17-.09.23-.16l.47.48c-.07.09-.16.17-.27.23-.11.06-.22.11-.36.15-.13.03-.27.05-.42.05-.26,0-.48-.05-.67-.15Z"/>
        <path d="M244.79,8.01c.12,0,.21-.04.27-.11.06-.07.1-.18.1-.31v-1.64h.68v1.72c0,.22-.04.41-.12.56-.08.16-.19.27-.34.36-.15.08-.33.12-.54.12h-.05v-.7ZM245.55,5.94h1.42v.7h-1.42v-.7ZM246.55,5.94h.72v2.73h-.72v-2.73Z"/>
        <path d="M247.65,5.94h.68l.92,2.38-.46.58-1.15-2.96ZM250.18,5.94l-1.22,3.37c-.05.13-.1.22-.17.3-.07.07-.15.13-.25.16-.1.03-.22.05-.37.05h-.16v-.7h.16c.08,0,.14-.02.19-.05.05-.03.09-.09.12-.17l1.02-2.96h.68Z"/>
        <path d="M251.06,7.25l.66.28-.76,1.15h-.83l.93-1.43ZM250.29,5.94h.76l.69,1.16-.48.47-.96-1.64ZM251.13,6.96h1.97v.7h-1.97v-.7ZM251.75,5.94h.72v2.73h-.72v-2.73ZM252.49,7.11l.69-1.16h.76l-.96,1.64-.48-.47ZM252.52,7.52l.66-.28.93,1.43h-.83l-.76-1.15Z"/>
        <path d="M256.09,8.67v-1.81l.06.07-1.11,1.74h-.63v-2.73h.69v1.85l-.06-.07,1.11-1.79h.62v2.73h-.69Z"/>
        <path d="M257.52,5.94h.72v2.73h-.72v-2.73ZM257.89,8.11h.88c.11,0,.19-.03.25-.08.06-.05.09-.12.09-.21h0c0-.1-.03-.17-.09-.22-.06-.05-.14-.07-.25-.07h-.88v-.56h.88c.09,0,.16-.02.21-.06.05-.04.07-.1.07-.17,0-.07-.02-.13-.07-.17-.05-.04-.12-.06-.21-.06h-.89v-.56h1.04c.27,0,.49.06.63.18.15.12.22.29.22.5,0,.17-.04.3-.13.41-.09.11-.22.18-.38.21.18.04.32.12.42.25.1.13.15.29.15.48h0c0,.23-.08.4-.24.53s-.39.18-.68.18h-1.03v-.56Z"/>
        <path d="M260.53,8.51c-.14-.14-.22-.35-.22-.64s.08-.47.24-.61c.16-.14.41-.2.73-.2h.69l.04.55h-.72c-.11,0-.19.02-.25.06s-.08.11-.08.2.03.16.1.2.17.06.31.06c.19,0,.34-.02.43-.07.09-.04.14-.11.14-.2l.06.4c-.01.1-.06.18-.14.25-.08.07-.18.12-.3.15-.12.03-.25.05-.38.05-.29,0-.51-.07-.66-.21ZM261.95,6.94c0-.13-.04-.22-.13-.29s-.2-.1-.36-.1c-.1,0-.2.02-.3.05-.1.03-.19.08-.27.14l-.45-.44c.11-.13.25-.22.43-.29.18-.07.38-.1.6-.1.24,0,.44.04.61.12.17.08.3.2.39.35.09.15.13.33.13.55v1.76h-.66v-1.73Z"/>
        <path d="M263.33,5.94h.72v2.73h-.72v-2.73ZM263.71,7h1.68v.67h-1.68v-.67ZM264.98,5.94h.72v2.73h-.72v-2.73Z"/>
        <path d="M268.11,8.67v-1.81l.06.07-1.11,1.74h-.63v-2.73h.69v1.85l-.06-.07,1.11-1.79h.62v2.73h-.69Z"/>
        <path d="M270.04,8.57c-.19-.1-.33-.24-.43-.42-.1-.18-.15-.4-.15-.66v-.31c0-.27.05-.5.14-.69.09-.19.23-.34.41-.44s.4-.15.65-.15c.24,0,.45.06.62.18.17.12.3.29.39.52.09.23.13.5.13.82v.18h-1.88v-.49h1.21v-.06c-.03-.16-.08-.28-.16-.37-.08-.09-.19-.13-.32-.13-.17,0-.31.05-.41.16-.1.1-.14.25-.14.44v.35c0,.19.05.33.16.43.1.1.25.15.44.15.1,0,.19-.02.29-.05.1-.03.18-.08.26-.15l.47.42c-.14.13-.3.23-.48.3-.18.07-.36.11-.54.11-.26,0-.49-.05-.68-.14Z"/>
        <path d="M275.78,6.96v.7h-1.88v-.7h1.88Z"/>
        <path d="M278.33,8.61c-.16-.07-.28-.18-.38-.31-.1-.14-.16-.3-.18-.5h.71c.01.09.06.17.13.22s.16.08.27.08c.12,0,.22-.02.28-.07.07-.04.1-.11.1-.19h0c0-.07-.03-.13-.09-.17-.06-.04-.14-.06-.24-.06h-.3v-.6h.3c.08,0,.15-.02.2-.07s.07-.11.07-.2h0c0-.08-.03-.14-.08-.18-.06-.04-.13-.06-.24-.06s-.19.03-.26.08-.12.14-.14.24h-.71c.06-.29.18-.52.37-.68.19-.16.44-.24.74-.24.31,0,.56.07.73.2.17.13.26.32.26.56h0c0,.14-.04.27-.11.37-.07.1-.17.18-.31.23.15.02.27.09.35.2.08.11.13.25.13.43h0c0,.26-.09.47-.28.61-.18.14-.44.21-.78.21-.21,0-.39-.04-.54-.11Z"/>
        <path d="M280.61,8.51c-.14-.14-.22-.35-.22-.64s.08-.47.24-.61c.16-.14.41-.2.73-.2h.69l.04.55h-.72c-.11,0-.19.02-.25.06s-.08.11-.08.2.03.16.1.2.17.06.31.06c.19,0,.34-.02.43-.07.09-.04.14-.11.14-.2l.06.4c-.01.1-.06.18-.14.25-.08.07-.18.12-.3.15-.12.03-.25.05-.38.05-.29,0-.51-.07-.66-.21ZM282.03,6.94c0-.13-.04-.22-.13-.29s-.2-.1-.36-.1c-.1,0-.2.02-.3.05-.1.03-.19.08-.27.14l-.45-.44c.11-.13.25-.22.43-.29.18-.07.38-.1.6-.1.24,0,.44.04.61.12.17.08.3.2.39.35.09.15.13.33.13.55v1.76h-.66v-1.73Z"/>
        <path d="M283.4,5.94h.72v2.73h-.72v-2.73ZM283.79,5.94h1.68v.7h-1.68v-.7ZM285.05,5.94h.72v2.73h-.72v-2.73Z"/>
        <path d="M286.95,7.69c-.15-.09-.27-.21-.34-.37-.08-.16-.12-.36-.12-.59v-.8h.72v.73c0,.14.04.24.12.32.08.07.18.11.32.11s.25-.04.33-.13c.08-.08.12-.2.12-.36v-.2h.3v.2c0,.39-.07.69-.21.89-.14.2-.37.3-.69.3-.21,0-.39-.04-.54-.13ZM288.1,5.94h.72v2.73h-.72v-2.73Z"/>
        <path d="M289.65,8.51c-.14-.14-.22-.35-.22-.64s.08-.47.24-.61c.16-.14.41-.2.73-.2h.69l.04.55h-.72c-.11,0-.19.02-.25.06s-.08.11-.08.2.03.16.1.2.17.06.31.06c.19,0,.34-.02.43-.07.09-.04.14-.11.14-.2l.06.4c-.01.1-.06.18-.14.25-.08.07-.18.12-.3.15-.12.03-.25.05-.38.05-.29,0-.51-.07-.66-.21ZM291.07,6.94c0-.13-.04-.22-.13-.29s-.2-.1-.36-.1c-.1,0-.2.02-.3.05-.1.03-.19.08-.27.14l-.45-.44c.11-.13.25-.22.43-.29.18-.07.38-.1.6-.1.24,0,.44.04.61.12.17.08.3.2.39.35.09.15.13.33.13.55v1.76h-.66v-1.73Z"/>
        <path d="M292.93,8.57c-.19-.1-.33-.24-.42-.43-.1-.19-.15-.42-.15-.69v-.29c0-.27.05-.49.15-.68.1-.19.24-.33.42-.43.19-.1.41-.15.67-.15.15,0,.29.02.42.05.13.03.25.08.36.15.11.07.19.14.26.24l-.47.45c-.07-.06-.15-.11-.24-.14-.09-.03-.18-.05-.28-.05-.18,0-.32.05-.43.15-.1.1-.15.24-.15.41v.29c0,.18.05.32.15.42.1.1.24.15.43.15.1,0,.2-.02.29-.06.09-.04.17-.09.23-.16l.47.48c-.07.09-.16.17-.27.23-.11.06-.22.11-.36.15-.13.03-.27.05-.42.05-.26,0-.48-.05-.67-.15Z"/>
        <path d="M294.79,5.94h2.24v.7h-2.24v-.7ZM295.55,6.23h.72v2.45h-.72v-2.45Z"/>
        <path d="M299.31,8.67v-1.81l.06.07-1.11,1.74h-.63v-2.73h.69v1.85l-.06-.07,1.11-1.79h.62v2.73h-.69Z"/>
      </g>
      <g>
        <path d="M8.88,43.68c-.17-.08-.29-.21-.38-.37s-.13-.36-.13-.58v-.79c0-.23.04-.42.13-.58s.21-.28.38-.37c.17-.08.37-.13.6-.13.19,0,.36.04.52.12.15.08.28.19.38.34s.17.33.21.54h-.6c-.02-.1-.06-.18-.1-.24-.05-.07-.1-.12-.17-.16s-.14-.05-.22-.05c-.11,0-.2.02-.28.06-.08.04-.13.1-.17.18-.04.08-.06.18-.06.29v.79c0,.11.02.21.06.29.04.08.1.14.17.18.08.04.17.06.28.06.08,0,.16-.02.23-.05.07-.03.12-.09.17-.15s.08-.15.1-.25h.6c-.04.21-.11.39-.21.54-.1.15-.22.26-.38.34s-.32.12-.52.12c-.23,0-.43-.04-.6-.13Z"/>
        <path d="M11.03,41.72h.58v2.06h-.58v-2.06ZM11.36,42.52h.94v.47h-.94v-.47ZM12.43,43.71c-.14-.07-.25-.17-.32-.31s-.11-.3-.11-.49v-.34c0-.19.04-.35.11-.48s.18-.23.32-.3c.14-.07.31-.1.51-.1s.37.03.51.1c.14.07.25.17.32.3s.11.29.11.48v.34c0,.19-.04.35-.11.48s-.18.23-.32.31c-.14.07-.31.11-.51.11s-.37-.03-.51-.11ZM13.21,43.19c.06-.06.1-.16.1-.27v-.34c0-.12-.03-.2-.1-.27-.06-.06-.15-.1-.27-.1s-.2.03-.27.1c-.06.06-.1.15-.1.27v.34c0,.12.03.21.09.27s.15.1.27.1.21-.03.27-.1Z"/>
        <path d="M14.48,43.65c-.12-.11-.17-.27-.17-.48s.06-.36.19-.46.32-.15.58-.15h.55l.03.42h-.58c-.09,0-.15.02-.2.05-.04.03-.07.08-.07.15s.03.12.08.15.14.05.25.05c.15,0,.27-.02.34-.05s.11-.08.11-.16l.04.3c0,.07-.04.14-.11.19-.06.05-.14.09-.24.12s-.2.04-.3.04c-.23,0-.41-.05-.53-.16ZM15.62,42.47c0-.1-.03-.17-.1-.22-.07-.05-.16-.08-.29-.08-.08,0-.16.01-.24.04-.08.02-.15.06-.21.11l-.36-.33c.09-.09.2-.17.35-.22s.3-.08.48-.08c.19,0,.35.03.49.09s.24.15.31.26c.07.11.11.25.11.41v1.33h-.52v-1.31Z"/>
        <path d="M16.71,41.72h.58v2.06h-.58v-2.06ZM17.02,42.51h1.34v.5h-1.34v-.5ZM18.03,41.72h.58v2.06h-.58v-2.06Z"/>
        <path d="M21.86,42.48v.52h-1.5v-.52h1.5Z"/>
        <path d="M23.88,43.77c-.11-.02-.2-.06-.28-.11-.08-.05-.16-.11-.21-.18l.37-.34c.05.05.11.09.19.12s.15.04.23.04c.15,0,.26-.04.34-.12s.12-.19.12-.33v-.22c0-.13-.04-.24-.12-.31s-.19-.11-.34-.11c-.08,0-.15.01-.23.04-.07.03-.13.06-.19.11l-.37-.34c.06-.07.13-.13.21-.18s.18-.09.29-.11.22-.04.34-.04c.21,0,.39.04.53.11.15.07.26.18.34.32s.12.31.12.51v.22c0,.2-.04.37-.12.52s-.19.25-.34.33c-.15.07-.33.11-.53.11-.12,0-.23-.01-.34-.04ZM23.89,42.98v-.47h.96v.47h-.96Z"/>
        <path d="M25.73,41.72h.58v2.06h-.58v-2.06ZM26.04,42.51h1.34v.5h-1.34v-.5ZM27.05,41.72h.58v2.06h-.58v-2.06Z"/>
        <path d="M28.62,43.7c-.15-.07-.26-.18-.34-.32s-.12-.31-.12-.5v-.23c0-.2.04-.38.11-.52.07-.14.18-.25.33-.33s.32-.11.52-.11c.19,0,.35.04.49.14.14.09.24.22.31.39.07.17.11.38.11.62v.14h-1.5v-.37h.97v-.05c-.02-.12-.06-.21-.13-.28s-.15-.1-.26-.1c-.14,0-.25.04-.32.12s-.12.19-.12.33v.26c0,.14.04.25.13.33s.2.12.35.12c.08,0,.15-.01.23-.04.08-.03.14-.06.21-.11l.38.32c-.11.1-.24.17-.38.23s-.28.08-.43.08c-.21,0-.39-.04-.54-.11Z"/>
        <path d="M30.53,41.72h.58v2.9h-.58v-2.9ZM31.29,43.72c-.09-.06-.16-.15-.21-.26l.03-.47c0,.07.01.13.04.17s.06.08.11.11c.05.02.11.04.18.04.11,0,.19-.03.25-.1s.09-.16.09-.29v-.33c0-.13-.03-.22-.09-.29s-.14-.1-.25-.1c-.07,0-.13.01-.18.04-.05.03-.09.06-.11.11s-.04.11-.04.18l-.04-.46c.06-.12.14-.21.23-.28.1-.07.2-.1.32-.1.15,0,.29.03.4.11.11.07.19.17.25.31s.09.3.09.49v.33c0,.19-.03.35-.09.48s-.14.23-.25.31c-.11.07-.24.11-.4.11-.13,0-.24-.03-.33-.09Z"/>
        <path d="M32.88,41.72h.58v2.06h-.58v-2.06ZM33.09,41.72h1.28v.52h-1.28v-.52Z"/>
        <path d="M34.93,43.71c-.14-.07-.25-.17-.32-.31s-.11-.3-.11-.49v-.34c0-.19.04-.35.11-.48s.18-.23.32-.3c.14-.07.31-.1.51-.1s.37.03.51.1c.14.07.25.17.32.3s.11.29.11.48v.34c0,.19-.04.35-.11.48s-.18.23-.32.31c-.14.07-.31.11-.51.11s-.37-.03-.51-.11ZM35.71,43.19c.06-.06.1-.16.1-.27v-.34c0-.12-.03-.2-.1-.27-.06-.06-.16-.1-.27-.1s-.2.03-.27.1c-.06.06-.1.15-.1.27v.34c0,.12.03.21.09.27.06.06.15.1.27.1s.21-.03.27-.1Z"/>
        <path d="M37.21,43.77c-.11-.02-.2-.06-.28-.11-.08-.05-.16-.11-.21-.18l.37-.34c.05.05.11.09.19.12s.15.04.23.04c.15,0,.26-.04.34-.12s.12-.19.12-.33v-.22c0-.13-.04-.24-.12-.31s-.19-.11-.34-.11c-.08,0-.15.01-.23.04-.07.03-.13.06-.19.11l-.37-.34c.06-.07.13-.13.21-.18s.18-.09.29-.11.22-.04.34-.04c.21,0,.39.04.53.11.15.07.26.18.34.32s.12.31.12.51v.22c0,.2-.04.37-.12.52s-.19.25-.34.33c-.15.07-.33.11-.53.11-.12,0-.23-.01-.34-.04ZM37.22,42.98v-.47h.96v.47h-.96Z"/>
        <path d="M39.16,43.6c-.11-.12-.16-.29-.16-.51v-.68c0-.22.05-.39.16-.51.11-.12.26-.18.45-.18.17,0,.31.07.4.2s.14.32.14.57v.59c0,.22-.05.39-.14.52s-.23.18-.4.18c-.2,0-.35-.06-.45-.18ZM39.96,43.18c.04-.05.06-.13.06-.23v-.4c0-.1-.02-.17-.06-.23-.04-.05-.1-.08-.18-.08-.07,0-.12.03-.15.08s-.05.13-.05.22v.4c0,.1.02.17.05.23s.09.08.15.08c.08,0,.14-.03.18-.08ZM40.02,41.12h.58v3.26h-.58v-3.26ZM40.6,43.6c-.1-.12-.14-.29-.14-.52v-.59c0-.25.05-.43.14-.57.09-.13.23-.2.4-.2.2,0,.35.06.46.18s.16.29.16.51v.68c0,.22-.05.39-.16.51s-.26.18-.46.18c-.17,0-.31-.06-.4-.18ZM40.99,43.18c.04-.05.06-.13.06-.23v-.4c0-.1-.02-.17-.06-.22-.04-.05-.09-.08-.15-.08-.08,0-.13.03-.18.08-.04.05-.06.13-.06.22v.4c0,.1.02.17.06.23.04.05.1.08.18.08.07,0,.12-.03.15-.08Z"/>
        <path d="M42.25,43.6c-.11-.12-.16-.29-.16-.51v-.68c0-.22.05-.39.16-.51.11-.12.26-.18.45-.18.17,0,.31.07.4.2s.14.32.14.57v.59c0,.22-.05.39-.14.52s-.23.18-.4.18c-.2,0-.35-.06-.45-.18ZM43.05,43.18c.04-.05.06-.13.06-.23v-.4c0-.1-.02-.17-.06-.23-.04-.05-.1-.08-.18-.08-.07,0-.12.03-.15.08s-.05.13-.05.22v.4c0,.1.02.17.05.23s.09.08.15.08c.08,0,.14-.03.18-.08ZM43.11,41.12h.58v3.26h-.58v-3.26ZM43.7,43.6c-.1-.12-.14-.29-.14-.52v-.59c0-.25.05-.43.14-.57.09-.13.23-.2.4-.2.2,0,.35.06.46.18s.16.29.16.51v.68c0,.22-.05.39-.16.51s-.26.18-.46.18c-.17,0-.31-.06-.4-.18ZM44.08,43.18c.04-.05.06-.13.06-.23v-.4c0-.1-.02-.17-.06-.22-.04-.05-.09-.08-.15-.08-.08,0-.13.03-.18.08-.04.05-.06.13-.06.22v.4c0,.1.02.17.06.23.04.05.1.08.18.08.07,0,.12-.03.15-.08Z"/>
        <path d="M45.64,43.7c-.15-.07-.26-.18-.34-.32s-.12-.31-.12-.5v-.23c0-.2.04-.38.11-.52.07-.14.18-.25.33-.33s.32-.11.52-.11c.19,0,.35.04.49.14.14.09.24.22.31.39.07.17.11.38.11.62v.14h-1.5v-.37h.97v-.05c-.02-.12-.06-.21-.13-.28s-.15-.1-.26-.1c-.14,0-.25.04-.32.12s-.12.19-.12.33v.26c0,.14.04.25.13.33s.2.12.35.12c.08,0,.15-.01.23-.04.08-.03.14-.06.21-.11l.38.32c-.11.1-.24.17-.38.23s-.28.08-.43.08c-.21,0-.39-.04-.54-.11Z"/>
        <path d="M47.56,41.72h.58v2.06h-.58v-2.06ZM47.81,42.48h1.13v.52h-1.13v-.52ZM48.41,42.91l.52-.21.59,1.08h-.66l-.46-.87ZM48.41,42.6l.38-.88h.6l-.56,1.23-.43-.36Z"/>
        <path d="M49.67,41.72h1.78v.52h-1.78v-.52ZM50.27,41.93h.58v1.85h-.58v-1.85Z"/>
        <path d="M53.27,43.78v-1.37l.05.05-.88,1.31h-.5v-2.06h.55v1.4l-.05-.05.89-1.35h.5v2.06h-.55Z"/>
        <path d="M54.41,41.72h.58v2.06h-.58v-2.06ZM54.71,43.36h.7c.09,0,.15-.02.2-.06s.07-.09.07-.16h0c0-.07-.02-.13-.07-.16s-.11-.06-.2-.06h-.7v-.43h.7c.07,0,.13-.02.17-.05s.06-.08.06-.13-.02-.1-.06-.13-.09-.04-.16-.04h-.71v-.43h.83c.22,0,.39.04.51.13.12.09.18.22.18.38,0,.13-.04.23-.11.31-.07.08-.17.13-.3.16.14.03.25.09.33.19s.12.22.12.36h0c0,.17-.06.3-.19.4-.13.09-.31.14-.54.14h-.82v-.43Z"/>
        <path d="M56.75,41.72h.58v2.06h-.58v-2.06ZM57.06,42.51h1.34v.5h-1.34v-.5ZM58.07,41.72h.58v2.06h-.58v-2.06Z"/>
        <path d="M59.23,41.72h.58v2.06h-.58v-2.06ZM59.38,43.26h.73c.07,0,.12-.02.16-.06.04-.04.06-.1.06-.17,0-.05,0-.09-.03-.12s-.05-.06-.08-.08c-.03-.02-.07-.03-.12-.03h-.73v-.47h.75c.15,0,.28.03.4.09.12.06.2.15.27.26s.1.24.1.38-.03.27-.09.38-.15.19-.27.26-.25.09-.4.09h-.75v-.52ZM61.14,41.72h.58v2.06h-.58v-2.06Z"/>
        <path d="M63.59,43.78v-1.37l.05.05-.88,1.31h-.5v-2.06h.55v1.4l-.05-.05.89-1.35h.5v2.06h-.55ZM62.66,41.19c-.12-.13-.17-.33-.17-.59h.47c0,.13.02.23.05.3.04.07.09.1.16.1h.04c.07,0,.13-.03.16-.1.04-.07.05-.16.05-.3h.47c0,.26-.06.46-.17.59s-.29.2-.52.2h-.04c-.23,0-.4-.07-.52-.2Z"/>
        <path d="M66.19,43.77c-.11-.02-.2-.06-.28-.11-.08-.05-.16-.11-.21-.18l.37-.34c.05.05.11.09.19.12s.15.04.23.04c.15,0,.26-.04.34-.12s.12-.19.12-.33v-.22c0-.13-.04-.24-.12-.31s-.19-.11-.34-.11c-.08,0-.15.01-.23.04-.07.03-.13.06-.19.11l-.37-.34c.06-.07.13-.13.21-.18s.18-.09.29-.11.22-.04.34-.04c.21,0,.39.04.53.11.15.07.26.18.34.32s.12.31.12.51v.22c0,.2-.04.37-.12.52s-.19.25-.34.33c-.15.07-.33.11-.53.11-.12,0-.23-.01-.34-.04ZM66.2,42.98v-.47h.96v.47h-.96Z"/>
        <path d="M67.78,43.27c.09,0,.16-.03.22-.08s.08-.13.08-.23v-1.24h.54v1.3c0,.17-.03.31-.09.42s-.15.21-.27.27-.26.09-.43.09h-.04v-.52ZM68.39,41.72h1.14v.52h-1.14v-.52ZM69.19,41.72h.58v2.06h-.58v-2.06Z"/>
        <path d="M70.75,43.7c-.15-.07-.26-.18-.34-.32s-.12-.31-.12-.5v-.23c0-.2.04-.38.11-.52.07-.14.18-.25.33-.33s.32-.11.52-.11c.19,0,.35.04.49.14.14.09.24.22.31.39.07.17.11.38.11.62v.14h-1.5v-.37h.97v-.05c-.02-.12-.06-.21-.13-.28s-.15-.1-.26-.1c-.14,0-.25.04-.32.12s-.12.19-.12.33v.26c0,.14.04.25.13.33s.2.12.35.12c.08,0,.15-.01.23-.04.08-.03.14-.06.21-.11l.38.32c-.11.1-.24.17-.38.23s-.28.08-.43.08c-.21,0-.39-.04-.54-.11Z"/>
        <path d="M72.67,41.72h.58v2.06h-.58v-2.06ZM72.92,42.48h1.13v.52h-1.13v-.52ZM73.52,42.91l.52-.21.59,1.08h-.66l-.46-.87ZM73.52,42.6l.38-.88h.6l-.56,1.23-.43-.36Z"/>
        <path d="M74.79,41.72h1.78v.52h-1.78v-.52ZM75.39,41.93h.58v1.85h-.58v-1.85Z"/>
        <path d="M77.05,41.72h.58v2.9h-.58v-2.9ZM77.81,43.72c-.09-.06-.16-.15-.21-.26l.03-.47c0,.07.01.13.04.17s.06.08.11.11c.05.02.11.04.18.04.11,0,.19-.03.25-.1s.09-.16.09-.29v-.33c0-.13-.03-.22-.09-.29s-.14-.1-.25-.1c-.07,0-.13.01-.18.04-.05.03-.09.06-.11.11s-.04.11-.04.18l-.04-.46c.06-.12.14-.21.23-.28.1-.07.2-.1.32-.1.15,0,.29.03.4.11.11.07.19.17.25.31s.09.3.09.49v.33c0,.19-.03.35-.09.48s-.14.23-.25.31c-.11.07-.24.11-.4.11-.13,0-.24-.03-.33-.09Z"/>
        <path d="M79.77,43.71c-.14-.07-.25-.17-.32-.31s-.11-.3-.11-.49v-.34c0-.19.04-.35.11-.48s.18-.23.32-.3c.14-.07.31-.1.51-.1s.37.03.51.1c.14.07.25.17.32.3s.11.29.11.48v.34c0,.19-.04.35-.11.48s-.18.23-.32.31c-.14.07-.31.11-.51.11s-.37-.03-.51-.11ZM80.55,43.19c.06-.06.1-.16.1-.27v-.34c0-.12-.03-.2-.1-.27-.06-.06-.16-.1-.27-.1s-.2.03-.27.1c-.06.06-.1.15-.1.27v.34c0,.12.03.21.09.27.06.06.15.1.27.1s.21-.03.27-.1Z"/>
        <path d="M81.48,41.72h1.78v.52h-1.78v-.52ZM82.08,41.93h.58v1.85h-.58v-1.85Z"/>
        <path d="M83.75,41.72h.58v2.9h-.58v-2.9ZM84.5,43.72c-.09-.06-.16-.15-.21-.26l.03-.47c0,.07.01.13.04.17s.06.08.11.11c.05.02.11.04.18.04.11,0,.19-.03.25-.1s.09-.16.09-.29v-.33c0-.13-.03-.22-.09-.29s-.14-.1-.25-.1c-.07,0-.13.01-.18.04-.05.03-.09.06-.11.11s-.04.11-.04.18l-.04-.46c.06-.12.14-.21.23-.28.1-.07.2-.1.32-.1.15,0,.29.03.4.11.11.07.19.17.25.31s.09.3.09.49v.33c0,.19-.03.35-.09.48s-.14.23-.25.31c-.11.07-.24.11-.4.11-.13,0-.24-.03-.33-.09Z"/>
        <path d="M86.16,43.65c-.12-.11-.17-.27-.17-.48s.06-.36.19-.46.32-.15.58-.15h.55l.03.42h-.58c-.09,0-.15.02-.2.05-.04.03-.07.08-.07.15s.03.12.08.15.14.05.25.05c.15,0,.27-.02.34-.05s.11-.08.11-.16l.04.3c0,.07-.04.14-.11.19-.06.05-.14.09-.24.12s-.2.04-.3.04c-.23,0-.41-.05-.53-.16ZM87.3,42.47c0-.1-.03-.17-.1-.22-.07-.05-.16-.08-.29-.08-.08,0-.16.01-.24.04-.08.02-.15.06-.21.11l-.36-.33c.09-.09.2-.17.35-.22s.3-.08.48-.08c.19,0,.35.03.49.09s.24.15.31.26c.07.11.11.25.11.41v1.33h-.52v-1.31Z"/>
        <path d="M88.78,43.7c-.15-.07-.26-.18-.34-.33s-.12-.32-.12-.52v-.22c0-.2.04-.37.12-.51s.19-.25.34-.32c.15-.07.33-.11.53-.11.12,0,.23.01.34.04s.2.06.29.11.15.11.21.18l-.37.34c-.05-.05-.12-.08-.19-.11s-.15-.04-.23-.04c-.15,0-.26.04-.34.11-.08.07-.12.18-.12.31v.22c0,.14.04.24.12.32.08.07.19.11.34.11.08,0,.16-.01.23-.04s.13-.07.19-.12l.37.36c-.06.07-.13.13-.21.18-.08.05-.18.09-.28.11-.11.02-.22.04-.34.04-.21,0-.39-.04-.53-.11Z"/>
        <path d="M90.54,41.72h.58v2.06h-.58v-2.06ZM90.85,41.72h1.34v.52h-1.34v-.52ZM91.86,41.72h.58v2.06h-.58v-2.06Z"/>
        <path d="M93.4,43.71c-.14-.07-.25-.17-.32-.31s-.11-.3-.11-.49v-.34c0-.19.04-.35.11-.48s.18-.23.32-.3c.14-.07.31-.1.51-.1s.37.03.51.1c.14.07.25.17.32.3s.11.29.11.48v.34c0,.19-.04.35-.11.48s-.18.23-.32.31c-.14.07-.31.11-.51.11s-.37-.03-.51-.11ZM94.18,43.19c.06-.06.1-.16.1-.27v-.34c0-.12-.03-.2-.1-.27-.06-.06-.16-.1-.27-.1s-.2.03-.27.1c-.06.06-.1.15-.1.27v.34c0,.12.03.21.09.27.06.06.15.1.27.1s.21-.03.27-.1Z"/>
        <path d="M95.38,41.72h.58v2.9h-.58v-2.9ZM96.13,43.72c-.09-.06-.16-.15-.21-.26l.03-.47c0,.07.01.13.04.17s.06.08.11.11c.05.02.11.04.18.04.11,0,.19-.03.25-.1s.09-.16.09-.29v-.33c0-.13-.03-.22-.09-.29s-.14-.1-.25-.1c-.07,0-.13.01-.18.04-.05.03-.09.06-.11.11s-.04.11-.04.18l-.04-.46c.06-.12.14-.21.23-.28.1-.07.2-.1.32-.1.15,0,.29.03.4.11.11.07.19.17.25.31s.09.3.09.49v.33c0,.19-.03.35-.09.48s-.14.23-.25.31c-.11.07-.24.11-.4.11-.13,0-.24-.03-.33-.09Z"/>
        <path d="M97.45,41.72h1.78v.52h-1.78v-.52ZM98.06,41.93h.58v1.85h-.58v-1.85Z"/>
      </g>
      <g>
        <path d="M208.33,21.63h3.28v.7h-3.28v-.7ZM208.33,21.63h.7v1.49h-.7v-1.49ZM208.35,21.63h.06c.16,0,.28-.07.37-.22.09-.15.13-.35.13-.62v-2.29h.72v2.18c0,.32-.04.59-.13.81-.09.22-.22.39-.39.51s-.39.17-.65.17h-.12v-.54ZM209.33,18.49h1.67v.7h-1.67v-.7ZM210.69,18.49h.72v3.83h-.72v-3.83ZM211.14,21.63h.7v1.49h-.7v-1.49Z"/>
        <path d="M212.79,22.22c-.18-.09-.31-.23-.4-.41-.09-.18-.14-.39-.14-.64v-.45c0-.25.05-.46.14-.64.09-.18.23-.31.4-.4.18-.09.39-.14.64-.14s.46.05.64.14c.18.09.31.23.4.4.09.18.14.39.14.64v.45c0,.25-.05.46-.14.64-.09.18-.23.31-.4.4-.18.09-.39.14-.64.14s-.46-.05-.64-.14ZM213.77,21.54c.08-.09.12-.2.12-.36v-.45c0-.15-.04-.27-.12-.36s-.19-.13-.34-.13-.26.04-.34.13c-.08.08-.12.2-.12.36v.45c0,.16.04.27.12.36.08.09.19.13.34.13s.26-.04.34-.13Z"/>
        <path d="M215.77,22.21c-.19-.1-.33-.24-.42-.43-.1-.19-.15-.42-.15-.69v-.29c0-.27.05-.49.15-.68.1-.19.24-.33.42-.43.19-.1.41-.15.67-.15.15,0,.29.02.42.05.13.03.25.08.36.15.11.07.19.14.26.24l-.47.45c-.07-.06-.15-.11-.24-.14-.09-.03-.18-.05-.28-.05-.18,0-.32.05-.43.15-.1.1-.15.24-.15.41v.29c0,.18.05.32.15.42.1.1.24.15.43.15.1,0,.2-.02.29-.06.09-.04.17-.09.23-.16l.47.48c-.07.09-.16.17-.27.23-.11.06-.22.11-.36.15-.13.03-.27.05-.42.05-.26,0-.48-.05-.67-.15Z"/>
        <path d="M217.63,19.59h2.24v.7h-2.24v-.7ZM218.38,19.88h.72v2.45h-.72v-2.45Z"/>
        <path d="M220.56,22.15c-.14-.14-.22-.35-.22-.64s.08-.47.24-.61c.16-.14.41-.2.73-.2h.69l.04.55h-.72c-.11,0-.19.02-.25.06s-.08.11-.08.2.03.16.1.2.17.06.31.06c.19,0,.34-.02.43-.07.09-.04.14-.11.14-.2l.06.4c-.01.1-.06.18-.14.25-.08.07-.18.12-.3.15-.12.03-.25.05-.38.05-.29,0-.51-.07-.66-.21ZM221.98,20.59c0-.13-.04-.22-.13-.29s-.2-.1-.36-.1c-.1,0-.2.02-.3.05-.1.03-.19.08-.27.14l-.45-.44c.11-.13.25-.22.43-.29.18-.07.38-.1.6-.1.24,0,.44.04.61.12.17.08.3.2.39.35.09.15.13.33.13.55v1.76h-.66v-1.73Z"/>
        <path d="M223.35,19.59h.72v2.73h-.72v-2.73ZM223.72,21.76h.88c.11,0,.19-.03.25-.08.06-.05.09-.12.09-.21h0c0-.1-.03-.17-.09-.22-.06-.05-.14-.07-.25-.07h-.88v-.56h.88c.09,0,.16-.02.21-.06.05-.04.07-.1.07-.17,0-.07-.02-.13-.07-.17-.05-.04-.12-.06-.21-.06h-.89v-.56h1.04c.27,0,.49.06.63.18.15.12.22.29.22.5,0,.17-.04.3-.13.41-.09.11-.22.18-.38.21.18.04.32.12.42.25.1.13.15.29.15.48h0c0,.23-.08.4-.24.53s-.39.18-.68.18h-1.03v-.56Z"/>
        <path d="M226.28,19.59h.72v2.73h-.72v-2.73ZM226.59,20.61h1.41v.7h-1.41v-.7ZM227.34,21.17l.66-.28.74,1.43h-.83l-.57-1.15ZM227.35,20.75l.48-1.16h.76l-.7,1.64-.54-.47Z"/>
        <path d="M229.15,22.15c-.14-.14-.22-.35-.22-.64s.08-.47.24-.61c.16-.14.41-.2.73-.2h.69l.04.55h-.72c-.11,0-.19.02-.25.06s-.08.11-.08.2.03.16.1.2.17.06.31.06c.19,0,.34-.02.43-.07.09-.04.14-.11.14-.2l.06.4c-.01.1-.06.18-.14.25-.08.07-.18.12-.3.15-.12.03-.25.05-.38.05-.29,0-.51-.07-.66-.21ZM230.57,20.59c0-.13-.04-.22-.13-.29s-.2-.1-.36-.1c-.1,0-.2.02-.3.05-.1.03-.19.08-.27.14l-.45-.44c.11-.13.25-.22.43-.29.18-.07.38-.1.6-.1.24,0,.44.04.61.12.17.08.3.2.39.35.09.15.13.33.13.55v1.76h-.66v-1.73Z"/>
        <path d="M233.39,19.59h.72v2.73h-.72v-2.73ZM233.78,19.59h1.68v.7h-1.68v-.7ZM235.05,19.59h.72v2.73h-.72v-2.73Z"/>
        <path d="M236.98,22.22c-.18-.09-.31-.23-.4-.41-.09-.18-.14-.39-.14-.64v-.45c0-.25.05-.46.14-.64.09-.18.23-.31.4-.4.18-.09.39-.14.64-.14s.46.05.64.14c.18.09.31.23.4.4.09.18.14.39.14.64v.45c0,.25-.05.46-.14.64-.09.18-.23.31-.4.4-.18.09-.39.14-.64.14s-.46-.05-.64-.14ZM237.95,21.54c.08-.09.12-.2.12-.36v-.45c0-.15-.04-.27-.12-.36s-.19-.13-.34-.13-.26.04-.34.13c-.08.08-.12.2-.12.36v.45c0,.16.04.27.12.36.08.09.19.13.34.13s.26-.04.34-.13Z"/>
        <path d="M240.91,19.59h.72v2.73h-.72v-2.73ZM241.28,21.76h.88c.11,0,.19-.03.25-.08.06-.05.09-.12.09-.21h0c0-.1-.03-.17-.09-.22-.06-.05-.14-.07-.25-.07h-.88v-.56h.88c.09,0,.16-.02.21-.06.05-.04.07-.1.07-.17,0-.07-.02-.13-.07-.17-.05-.04-.12-.06-.21-.06h-.89v-.56h1.04c.27,0,.49.06.63.18.15.12.22.29.22.5,0,.17-.04.3-.13.41-.09.11-.22.18-.38.21.18.04.32.12.42.25.1.13.15.29.15.48h0c0,.23-.08.4-.24.53s-.39.18-.68.18h-1.03v-.56Z"/>
        <path d="M244.33,22.21c-.19-.1-.33-.24-.42-.43-.1-.19-.15-.42-.15-.69v-.29c0-.27.05-.49.15-.68.1-.19.24-.33.42-.43.19-.1.41-.15.67-.15.15,0,.29.02.42.05.13.03.25.08.36.15.11.07.19.14.26.24l-.47.45c-.07-.06-.15-.11-.24-.14-.09-.03-.18-.05-.28-.05-.18,0-.32.05-.43.15-.1.1-.15.24-.15.41v.29c0,.18.05.32.15.42.1.1.24.15.43.15.1,0,.2-.02.29-.06.09-.04.17-.09.23-.16l.47.48c-.07.09-.16.17-.27.23-.11.06-.22.11-.36.15-.13.03-.27.05-.42.05-.26,0-.48-.05-.67-.15Z"/>
        <path d="M247.03,22.22c-.19-.1-.33-.24-.43-.42-.1-.18-.15-.4-.15-.66v-.31c0-.27.05-.5.14-.69.09-.19.23-.34.41-.44s.4-.15.65-.15c.24,0,.45.06.62.18.17.12.3.29.39.52.09.23.13.5.13.82v.18h-1.88v-.49h1.21v-.06c-.03-.16-.08-.28-.16-.37-.08-.09-.19-.13-.32-.13-.17,0-.31.05-.41.16-.1.1-.14.25-.14.44v.35c0,.19.05.33.16.43.1.1.25.15.44.15.1,0,.19-.02.29-.05.1-.03.18-.08.26-.15l.47.42c-.14.13-.3.23-.48.3-.18.07-.36.11-.54.11-.26,0-.49-.05-.68-.14Z"/>
        <path d="M251.11,22.32v-1.81l.06.07-1.11,1.74h-.63v-2.73h.69v1.85l-.06-.07,1.11-1.79h.62v2.73h-.69ZM249.94,18.89c-.14-.17-.22-.44-.22-.79h.59c0,.17.02.31.07.39.05.09.11.13.21.13h.05c.09,0,.16-.04.21-.13.05-.09.07-.22.07-.39h.59c0,.35-.07.61-.22.79s-.36.26-.65.26h-.05c-.29,0-.51-.09-.65-.26Z"/>
        <path d="M254.04,18.49h.72v3.83h-.72v-3.83ZM254.37,20.14h1.23c.09,0,.16-.02.23-.06s.12-.1.15-.17c.04-.07.06-.15.06-.25s-.02-.18-.05-.25c-.04-.07-.09-.13-.15-.17-.07-.04-.14-.06-.23-.06h-1.23v-.7h1.21c.24,0,.45.05.63.15s.32.23.42.41c.1.18.15.38.15.62s-.05.44-.15.62c-.1.18-.24.31-.42.41-.18.1-.39.15-.63.15h-1.21v-.7Z"/>
        <path d="M257.59,22.22c-.18-.09-.31-.23-.4-.41-.09-.18-.14-.39-.14-.64v-.45c0-.25.05-.46.14-.64.09-.18.23-.31.4-.4.18-.09.39-.14.64-.14s.46.05.64.14c.18.09.31.23.4.4.09.18.14.39.14.64v.45c0,.25-.05.46-.14.64-.09.18-.23.31-.4.4-.18.09-.39.14-.64.14s-.46-.05-.64-.14ZM258.56,21.54c.08-.09.12-.2.12-.36v-.45c0-.15-.04-.27-.12-.36s-.19-.13-.34-.13-.26.04-.34.13c-.08.08-.12.2-.12.36v.45c0,.16.04.27.12.36.08.09.19.13.34.13s.26-.04.34-.13Z"/>
        <path d="M260.56,22.21c-.19-.1-.33-.24-.42-.43-.1-.19-.15-.42-.15-.69v-.29c0-.27.05-.49.15-.68.1-.19.24-.33.42-.43.19-.1.41-.15.67-.15.15,0,.29.02.42.05.13.03.25.08.36.15.11.07.19.14.26.24l-.47.45c-.07-.06-.15-.11-.24-.14-.09-.03-.18-.05-.28-.05-.18,0-.32.05-.43.15-.1.1-.15.24-.15.41v.29c0,.18.05.32.15.42.1.1.24.15.43.15.1,0,.2-.02.29-.06.09-.04.17-.09.23-.16l.47.48c-.07.09-.16.17-.27.23-.11.06-.22.11-.36.15-.13.03-.27.05-.42.05-.26,0-.48-.05-.67-.15Z"/>
        <path d="M263.26,22.21c-.19-.1-.33-.24-.42-.43-.1-.19-.15-.42-.15-.69v-.29c0-.27.05-.49.15-.68.1-.19.24-.33.42-.43.19-.1.41-.15.67-.15.15,0,.29.02.42.05.13.03.25.08.36.15.11.07.19.14.26.24l-.47.45c-.07-.06-.15-.11-.24-.14-.09-.03-.18-.05-.28-.05-.18,0-.32.05-.43.15-.1.1-.15.24-.15.41v.29c0,.18.05.32.15.42.1.1.24.15.43.15.1,0,.2-.02.29-.06.09-.04.17-.09.23-.16l.47.48c-.07.09-.16.17-.27.23-.11.06-.22.11-.36.15-.13.03-.27.05-.42.05-.26,0-.48-.05-.67-.15Z"/>
        <path d="M267.13,22.32v-1.81l.06.07-1.11,1.74h-.63v-2.73h.69v1.85l-.06-.07,1.11-1.79h.62v2.73h-.69Z"/>
        <path d="M270.23,22.32v-1.81l.06.07-1.11,1.74h-.63v-2.73h.69v1.85l-.06-.07,1.11-1.79h.62v2.73h-.69Z"/>
      </g>
      <g>
        <path d="M208.1,32.14h2.82v.7h-2.82v-.7ZM209.14,32.45h.72v3.52h-.72v-3.52Z"/>
        <path d="M211.38,35.86c-.19-.1-.33-.24-.43-.42-.1-.18-.15-.4-.15-.66v-.31c0-.27.05-.5.14-.69.09-.19.23-.34.41-.44s.4-.15.65-.15c.24,0,.45.06.62.18.17.12.3.29.39.52.09.23.13.5.13.82v.18h-1.88v-.49h1.21v-.06c-.03-.16-.08-.28-.16-.37-.08-.09-.19-.13-.32-.13-.17,0-.31.05-.41.16-.1.1-.14.25-.14.44v.35c0,.19.05.33.16.43.1.1.25.15.44.15.1,0,.19-.02.29-.05.1-.03.18-.08.26-.15l.47.42c-.14.13-.3.23-.48.3-.18.07-.36.11-.54.11-.26,0-.49-.05-.68-.14Z"/>
        <path d="M214.36,35.96c-.16-.03-.3-.07-.44-.13-.14-.06-.26-.12-.36-.2l.45-.56c.13.08.27.15.41.19s.28.07.41.07c.17,0,.3-.02.39-.06s.14-.09.14-.16c0-.06-.02-.11-.06-.14-.04-.03-.09-.05-.16-.07s-.15-.02-.27-.04c-.03,0-.06,0-.1,0-.03,0-.06,0-.1-.01,0,0-.01,0-.02,0,0,0-.02,0-.02,0-.2-.03-.37-.06-.49-.1-.12-.04-.23-.11-.31-.22-.09-.11-.13-.27-.13-.48,0-.18.04-.34.13-.47.09-.13.22-.23.38-.3s.37-.1.61-.1c.14,0,.28.01.42.04.14.03.27.07.4.12.13.05.24.12.35.19l-.43.52c-.12-.07-.25-.12-.38-.16-.13-.04-.26-.05-.37-.05-.15,0-.26.02-.34.05-.08.03-.12.08-.12.14,0,.05.02.08.06.11s.1.04.16.06c.06.01.16.02.28.04.02,0,.03,0,.05,0h.05s.01,0,.02,0,.02,0,.02,0c.21.02.39.06.52.1.13.04.25.12.34.23s.14.29.14.51c0,.19-.05.35-.14.49s-.23.24-.4.31c-.18.07-.39.11-.64.11-.16,0-.32-.01-.48-.04Z"/>
        <path d="M216.38,33.23h1.34v.62h-1.34v-.62ZM216.83,35.8c-.11-.12-.17-.3-.17-.54v-2.82h.72v2.64c0,.07.01.12.04.15.03.04.06.05.12.05h.18v.7h-.36c-.24,0-.42-.06-.53-.18Z"/>
        <path d="M220.24,34.25v.7h-1.88v-.7h1.88Z"/>
        <path d="M220.84,35.3h2.69v.67h-2.69v-.67ZM220.84,35.3h.64v1.36h-.64v-1.36ZM220.94,35.3h.06c.09,0,.16-.03.21-.08s.07-.13.09-.24c.01-.1.02-.24.02-.42v-1.33h.72v1.51c0,.29-.07.51-.22.66-.15.15-.36.22-.63.22h-.06l-.18-.33ZM221.63,33.23h1.32v.67h-1.32v-.67ZM222.67,33.23h.72v2.73h-.72v-2.73ZM223.11,35.3h.64v1.36h-.64v-1.36Z"/>
        <path d="M224.36,33.23h.72v3.85h-.72v-3.85ZM225.31,35.89c-.12-.08-.2-.2-.26-.35l.04-.63c0,.09.02.17.05.23.03.06.08.11.14.15s.13.05.22.05c.14,0,.24-.04.32-.13s.11-.22.11-.38v-.43c0-.17-.04-.3-.11-.39-.07-.09-.18-.14-.32-.14-.09,0-.16.02-.22.05-.06.03-.11.08-.14.15-.03.06-.05.14-.05.24l-.06-.61c.07-.16.17-.28.29-.37.12-.09.25-.13.4-.13.19,0,.36.05.5.14.14.09.24.23.31.41.07.18.11.39.11.65v.44c0,.25-.04.46-.11.64-.07.18-.18.31-.31.4-.14.09-.3.14-.5.14-.16,0-.3-.04-.42-.12Z"/>
        <path d="M227.39,35.8c-.14-.14-.22-.35-.22-.64s.08-.47.24-.61c.16-.14.41-.2.73-.2h.69l.04.55h-.72c-.11,0-.19.02-.25.06s-.08.11-.08.2.03.16.1.2.17.06.31.06c.19,0,.34-.02.43-.07.09-.04.14-.11.14-.2l.06.4c-.01.1-.06.18-.14.25-.08.07-.18.12-.3.15-.12.03-.25.05-.38.05-.29,0-.51-.07-.66-.21ZM228.81,34.23c0-.13-.04-.22-.13-.29s-.2-.1-.36-.1c-.1,0-.2.02-.3.05-.1.03-.19.08-.27.14l-.45-.44c.11-.13.25-.22.43-.29.18-.07.38-.1.6-.1.24,0,.44.04.61.12.17.08.3.2.39.35.09.15.13.33.13.55v1.76h-.66v-1.73Z"/>
        <path d="M231.85,35.97v-1.81l.06.07-1.11,1.74h-.63v-2.73h.69v1.85l-.06-.07,1.11-1.79h.62v2.73h-.69ZM230.69,32.53c-.14-.17-.22-.44-.22-.79h.59c0,.17.02.31.07.39.05.09.11.13.21.13h.05c.09,0,.16-.04.21-.13.05-.09.07-.22.07-.39h.59c0,.35-.07.61-.22.79s-.36.26-.65.26h-.05c-.29,0-.51-.09-.65-.26Z"/>
        <path d="M233.29,33.23h.72v2.73h-.72v-2.73ZM233.66,35.41h.88c.11,0,.19-.03.25-.08.06-.05.09-.12.09-.21h0c0-.1-.03-.17-.09-.22-.06-.05-.14-.07-.25-.07h-.88v-.56h.88c.09,0,.16-.02.21-.06.05-.04.07-.1.07-.17,0-.07-.02-.13-.07-.17-.05-.04-.12-.06-.21-.06h-.89v-.56h1.04c.27,0,.49.06.63.18.15.12.22.29.22.5,0,.17-.04.3-.13.41-.09.11-.22.18-.38.21.18.04.32.12.42.25.1.13.15.29.15.48h0c0,.23-.08.4-.24.53s-.39.18-.68.18h-1.03v-.56Z"/>
      </g>
      <rect y="45.9" width="102.89" height=".19"/>
    </g>
  </g>
</svg>