<?xml version="1.0" encoding="UTF-8"?>
<svg id="_Слой_2" data-name="Слой 2" xmlns="http://www.w3.org/2000/svg" viewBox="0 0 90 37">
  <g id="_Слой_1-2" data-name="Слой 1">
    <g>
      <g>
        <path d="M12.78,10.53c-.89-.37-1.99-.69-3.31-.96-.05,0-.1-.02-.16-.03-.06,0-.11-.02-.16-.03-.04-.01-.08-.02-.11-.02-.04,0-.07-.01-.11-.02-1.09-.21-1.94-.41-2.55-.61-.61-.2-1.12-.5-1.52-.91-.41-.41-.61-.98-.61-1.7v-.02c0-1.01.4-1.79,1.19-2.34s1.9-.83,3.33-.83c.82,0,1.65.15,2.49.46.84.31,1.67.76,2.49,1.35l1.73-2.61c-.7-.49-1.43-.91-2.16-1.25-.74-.34-1.49-.59-2.25-.76-.76-.17-1.52-.25-2.3-.25-1.63,0-3.02.25-4.18.75-1.16.5-2.04,1.23-2.65,2.18s-.91,2.1-.91,3.45h0c0,1.55.32,2.73.97,3.56.65.83,1.43,1.4,2.35,1.72s2.1.6,3.55.85l.24.04s.06.01.1.01.07,0,.1.02c.94.17,1.72.35,2.32.56s1.1.51,1.47.93c.38.42.57.99.57,1.7v.02c0,1.01-.42,1.79-1.26,2.34-.84.55-2.02.83-3.53.83-1.16,0-2.25-.18-3.26-.54s-1.93-.89-2.75-1.6l-1.89,2.52c.7.58,1.46,1.08,2.28,1.48s1.7.7,2.64.9c.94.2,1.93.3,2.97.3,1.69,0,3.13-.25,4.32-.74,1.19-.49,2.11-1.21,2.74-2.16.63-.94.94-2.08.94-3.41v-.03c0-1.42-.3-2.55-.89-3.37s-1.34-1.42-2.22-1.79Z"/>
        <polygon points="25.14 9.87 20.53 .22 16.97 .22 23.52 13.12 23.52 21.8 26.76 21.8 26.76 13.12 33.3 .22 29.75 .22 25.14 9.87"/>
        <path d="M46.9,14.1c0,1.5-.39,2.67-1.16,3.49-.77.83-1.86,1.24-3.27,1.24s-2.48-.41-3.25-1.24c-.77-.83-1.15-1.99-1.15-3.49V.22h-3.24v13.77c0,1.69.3,3.14.9,4.34.6,1.2,1.47,2.12,2.62,2.75,1.15.63,2.52.94,4.13.94s3-.31,4.15-.94c1.15-.63,2.03-1.54,2.63-2.75.6-1.2.9-2.65.9-4.34V.22h-3.24v13.87Z"/>
        <path d="M60.13.22l-8.03,21.58h3.5l1.55-4.48h8.56l1.55,4.48h3.5L62.72.22h-2.59ZM58.21,14.23l3.22-9.3,3.22,9.3h-6.43Z"/>
        <polygon points="86.82 .22 86.82 16.28 77.1 .22 73.91 .22 73.91 21.78 77.09 21.78 77.09 5.97 86.77 21.78 90 21.78 90 .22 86.82 .22"/>
      </g>
      <g>
        <g>
          <rect x="77.94" y="31.96" width=".73" height=".73"/>
          <path d="M82.24,30.56c.2-.11.36-.27.48-.48.11-.21.17-.45.17-.72s-.06-.51-.17-.71c-.11-.21-.27-.37-.47-.48-.2-.11-.44-.17-.71-.17h-1.9v4.69h.7v-1.96h.89l1.01,1.96h.84l-1.1-2.03c.09-.03.18-.05.25-.1ZM80.33,28.67h1.21c.12,0,.23.03.32.08.09.06.16.14.21.24.05.11.07.23.07.36s-.02.26-.07.36c-.05.11-.12.19-.21.24-.09.06-.2.09-.32.09h-1.21v-1.39Z"/>
          <path d="M86.37,28v3.01c0,.33-.08.58-.25.76-.17.18-.41.27-.71.27s-.54-.09-.71-.27c-.17-.18-.25-.43-.25-.76v-3.01h-.7v2.99c0,.37.07.68.2.94.13.26.32.46.57.6.25.14.55.21.9.21s.65-.07.9-.21.44-.33.57-.6c.13-.26.2-.58.2-.94v-2.99h-.7Z"/>
        </g>
        <path d="M74.91,37v-13.41h15.09v13.41h-15.09ZM88.13,35.18v-9.77h-11.35v9.77h11.35Z"/>
      </g>
    </g>
  </g>
</svg>