<?xml version="1.0" encoding="UTF-8"?>
<svg id="_Слой_2" data-name="Слой 2" preserveAspectRatio='none' xmlns="http://www.w3.org/2000/svg" viewBox="0 0 1280 235">
  <defs>
    <style>
      .cls-1 {
        fill: #fff;
      }
    </style>
  </defs>
  <g id="_Слой_2-2" data-name=" Слой 2">
    <g id="_Слой_1-2" data-name=" Слой 1-2">
      <g>
        <g>
          <g>
            <g>
              <path d="M75.35,80.24c-5.21-2.18-11.65-4.02-19.37-5.6-.3-.04-.6-.13-.94-.17s-.68-.13-.94-.17c-.21-.04-.47-.09-.64-.13-.21,0-.43-.09-.64-.13-6.4-1.2-11.35-2.39-14.93-3.55s-6.53-2.95-8.92-5.34c-2.39-2.39-3.58-5.73-3.58-9.91v-.09c0-5.9,2.3-10.47,6.95-13.72s11.14-4.87,19.5-4.87c4.82,0,9.69.9,14.59,2.69s9.77,4.44,14.59,7.9l10.11-15.25c-4.14-2.91-8.36-5.3-12.67-7.26s-8.7-3.46-13.14-4.44c-4.44-.98-8.92-1.5-13.44-1.5-9.51,0-17.66,1.45-24.45,4.4-6.78,2.91-11.95,7.18-15.49,12.73-3.54,5.55-5.29,12.31-5.29,20.17v.09c0,8.97,1.92,15.89,5.72,20.72,3.8,4.87,8.41,8.2,13.74,10.08s12.29,3.5,20.78,4.96l1.41.26s.34.09.55.09.38,0,.55.09c5.5.98,10.03,2.05,13.57,3.25s6.4,2.99,8.62,5.47,3.33,5.77,3.33,9.91v.09c0,5.9-2.43,10.47-7.34,13.72-4.91,3.25-11.82,4.87-20.69,4.87-6.78,0-13.14-1.07-19.07-3.16-5.93-2.09-11.31-5.21-16.13-9.31l-11.14,14.7c4.14,3.42,8.58,6.28,13.36,8.63s9.94,4.1,15.45,5.26,11.31,1.75,17.41,1.75c9.86,0,18.3-1.45,25.3-4.32,7-2.91,12.33-7.09,16-12.6s5.55-12.18,5.55-19.91v-.17c0-8.33-1.75-14.87-5.21-19.7s-7.81-8.29-13.01-10.47l-.04-.04Z"/>
              <polygon points="147.67 76.4 120.67 20 99.89 20 138.2 95.41 138.2 146.13 157.15 146.13 157.15 95.41 195.46 20 174.64 20 147.67 76.4"/>
              <path d="M275.04,101.14c0,8.8-2.26,15.6-6.78,20.42-4.52,4.83-10.92,7.22-19.16,7.22s-14.51-2.39-19.03-7.22c-4.48-4.83-6.74-11.62-6.74-20.42V20h-18.99v80.5c0,9.87,1.75,18.33,5.25,25.38s8.62,12.39,15.32,16.07c6.7,3.67,14.76,5.51,24.15,5.51s17.54-1.84,24.28-5.51c6.74-3.67,11.86-9.02,15.36-16.07,3.5-7.01,5.25-15.47,5.25-25.38V20h-18.99v81.1l.09.04Z"/>
              <path d="M352.52,20l-47.02,126.13h20.48l9.05-26.19h50.14l9.05,26.19h20.48l-47.02-126.13s-15.15,0-15.15,0ZM341.3,101.9l18.82-54.39,18.82,54.39h-37.63Z"/>
              <polygon points="508.73 20 508.73 113.87 451.86 20 433.17 20 433.17 146.04 451.77 146.04 451.77 53.62 508.48 146.04 527.33 146.04 527.33 20 508.73 20"/>
            </g>
            <g>
              <g>
                <rect x="456.8" y="205.56" width="4.27" height="4.27"/>
                <path d="M481.89,197.36c1.19-.64,2.13-1.58,2.77-2.78.64-1.2.98-2.61.98-4.19s-.34-2.99-.98-4.19-1.58-2.14-2.77-2.82c-1.19-.64-2.56-.98-4.14-.98h-11.14v27.43h4.14v-11.49h5.21l5.93,11.49h4.91l-6.4-11.88c.51-.17,1.02-.3,1.49-.56v-.04ZM470.76,186.29h7.04c.73,0,1.32.17,1.83.51.51.34.94.81,1.24,1.41.3.6.43,1.32.43,2.14s-.13,1.5-.43,2.14c-.3.6-.68,1.11-1.24,1.41-.55.34-1.15.51-1.83.51h-7.04v-8.12Z"/>
                <path d="M506.09,182.4v17.6c0,1.92-.51,3.38-1.49,4.44-.98,1.07-2.39,1.58-4.18,1.58s-3.16-.51-4.14-1.58c-.98-1.03-1.45-2.52-1.45-4.44v-17.6h-4.14v17.48c0,2.14.38,3.97,1.15,5.51s1.88,2.69,3.33,3.5,3.2,1.2,5.25,1.2,3.8-.38,5.29-1.2,2.56-1.97,3.33-3.5,1.15-3.38,1.15-5.51v-17.48h-4.14.04Z"/>
              </g>
              <path d="M439.01,235v-78.36h88.32v78.36h-88.32ZM516.37,224.36v-57.08h-66.43v57.08h66.43Z"/>
            </g>
          </g>
          <g>
            <ellipse cx="852.21" cy="22.18" rx="22.23" ry="22.18"/>
            <path class="cls-1" d="M865.99,12.26c-.68-.68-1.75-.68-2.43,0l-15.49,15.47-7.17-7.14c-.68-.68-1.75-.68-2.43,0s-.68,1.75,0,2.44l9.6,9.57,17.92-17.9c.68-.68.68-1.75,0-2.44h0Z"/>
          </g>
          <g>
            <ellipse cx="852.21" cy="143.26" rx="22.23" ry="22.18"/>
            <path class="cls-1" d="M865.99,133.35c-.68-.68-1.75-.68-2.43,0l-15.49,15.47-7.17-7.14c-.68-.68-1.75-.68-2.43,0s-.68,1.75,0,2.44l9.6,9.57,17.92-17.9c.68-.68.68-1.75,0-2.44h0Z"/>
          </g>
          <g>
            <ellipse cx="852.21" cy="83.96" rx="22.23" ry="22.18"/>
            <path class="cls-1" d="M865.99,74.05c-.68-.68-1.75-.68-2.43,0l-15.49,15.47-7.17-7.14c-.68-.68-1.75-.68-2.43,0s-.68,1.75,0,2.44l9.6,9.57,17.92-17.9c.68-.68.68-1.75,0-2.44h0Z"/>
          </g>
          <rect x="524.22" y="19.95" width="309.77" height="4.36"/>
          <rect x="524.22" y="82.25" width="309.77" height="4.36"/>
          <rect x="520.34" y="141.73" width="309.77" height="4.36"/>
        </g>
        <g>
          <path d="M889.72,20.72h3.07v16.36h-3.07v-16.36ZM891.12,20.72h9.56v2.99h-9.56v-2.99ZM898.68,20.72h3.07v16.36h-3.07v-16.36Z"/>
          <path d="M905.16,25.38h3.07v16.45h-3.07v-16.45ZM909.17,36.7c-.51-.34-.85-.85-1.11-1.5l.17-2.69c0,.38.09.73.21.98s.34.47.6.64.55.21.94.21c.6,0,1.02-.17,1.37-.56s.47-.94.47-1.62v-1.84c0-.73-.17-1.28-.47-1.67-.3-.38-.77-.6-1.37-.6-.38,0-.68.09-.94.21s-.47.34-.6.64c-.13.26-.21.6-.21,1.03l-.26-2.61c.3-.68.73-1.2,1.24-1.58.51-.38,1.07-.56,1.71-.56.81,0,1.54.21,2.13.6.6.38,1.02.98,1.32,1.75.3.77.47,1.67.47,2.78v1.88c0,1.07-.17,1.97-.47,2.73s-.77,1.32-1.32,1.71c-.6.38-1.28.6-2.13.6-.68,0-1.28-.17-1.79-.51l.04-.04Z"/>
          <path d="M919.67,36.66c-.77-.38-1.32-.98-1.71-1.75-.38-.77-.6-1.67-.6-2.73v-1.92c0-1.07.21-1.97.6-2.73s.98-1.32,1.71-1.71c.77-.38,1.66-.6,2.73-.6s1.96.21,2.73.6c.77.38,1.32.98,1.71,1.71.38.77.6,1.67.6,2.73v1.92c0,1.07-.21,1.97-.6,2.73-.38.77-.98,1.32-1.71,1.71-.77.38-1.66.6-2.73.6s-1.96-.21-2.73-.6v.04ZM923.85,33.71c.34-.38.51-.85.51-1.54v-1.92c0-.64-.17-1.15-.51-1.54s-.81-.56-1.45-.56-1.11.17-1.45.56c-.34.34-.51.85-.51,1.54v1.92c0,.68.17,1.15.51,1.54s.81.56,1.45.56,1.11-.17,1.45-.56Z"/>
          <path d="M929.27,34.22h11.48v2.86h-11.48v-2.86ZM929.27,34.22h2.73v5.81h-2.73v-5.81ZM929.7,34.22h.26c.38,0,.68-.13.9-.34s.3-.56.38-1.03c.04-.43.09-1.03.09-1.79v-5.68h3.07v6.45c0,1.24-.3,2.18-.94,2.82s-1.54.94-2.69.94h-.26l-.77-1.41-.04.04ZM932.6,25.38h5.63v2.86h-5.63v-2.86ZM937.03,25.38h3.07v11.66h-3.07v-11.66ZM938.95,34.22h2.73v5.81h-2.73v-5.81Z"/>
          <path d="M944.63,36.36c-.6-.6-.94-1.5-.94-2.73s.34-2.01,1.02-2.61c.68-.6,1.75-.85,3.11-.85h2.94l.17,2.35h-3.07c-.47,0-.81.09-1.07.26s-.34.47-.34.85.13.68.43.85.73.26,1.32.26c.81,0,1.45-.09,1.83-.3.38-.17.6-.47.6-.85l.26,1.71c-.04.43-.26.77-.6,1.07s-.77.51-1.28.64c-.51.13-1.07.21-1.62.21-1.24,0-2.18-.3-2.82-.9l.04.04ZM950.69,29.65c0-.56-.17-.94-.55-1.24s-.85-.43-1.54-.43c-.43,0-.85.09-1.28.21s-.81.34-1.15.6l-1.92-1.88c.47-.56,1.07-.94,1.83-1.24s1.62-.43,2.56-.43c1.02,0,1.88.17,2.6.51s1.28.85,1.66,1.5.55,1.41.55,2.35v7.52h-2.82v-7.39l.04-.09Z"/>
          <path d="M958.71,30.98l2.82,1.2-3.24,4.91h-3.54s3.97-6.11,3.97-6.11ZM955.47,25.38h3.24l2.94,4.96-2.05,2.01-4.1-7.01-.04.04ZM959.05,29.74h8.41v2.99h-8.41v-2.99ZM961.7,25.38h3.07v11.66h-3.07v-11.66ZM964.85,30.38l2.94-4.96h3.24l-4.1,7.01-2.05-2.01-.04-.04ZM964.94,32.13l2.82-1.2,3.97,6.11h-3.54l-3.24-4.91Z"/>
          <path d="M973.43,36.36c-.6-.6-.94-1.5-.94-2.73s.34-2.01,1.02-2.61c.68-.6,1.75-.85,3.11-.85h2.94l.17,2.35h-3.07c-.47,0-.81.09-1.07.26s-.34.47-.34.85.13.68.43.85.73.26,1.32.26c.81,0,1.45-.09,1.83-.3.38-.17.6-.47.6-.85l.26,1.71c-.04.43-.26.77-.6,1.07s-.77.51-1.28.64c-.51.13-1.07.21-1.62.21-1.24,0-2.18-.3-2.82-.9l.04.04ZM979.49,29.65c0-.56-.17-.94-.55-1.24s-.85-.43-1.54-.43c-.43,0-.85.09-1.28.21s-.81.34-1.15.6l-1.92-1.88c.47-.56,1.07-.94,1.83-1.24s1.62-.43,2.56-.43c1.02,0,1.88.17,2.6.51s1.28.85,1.66,1.5.55,1.41.55,2.35v7.52h-2.82v-7.39l.04-.09Z"/>
          <path d="M999.59,29.74v2.99h-8.02v-2.99h8.02Z"/>
          <path d="M1010.81,36.66c-.77-.38-1.32-.98-1.71-1.75-.38-.77-.6-1.67-.6-2.73v-1.92c0-1.07.21-1.97.6-2.73s.98-1.32,1.71-1.71c.77-.38,1.66-.6,2.73-.6s1.96.21,2.73.6c.77.38,1.32.98,1.71,1.71.38.77.6,1.67.6,2.73v1.92c0,1.07-.21,1.97-.6,2.73-.38.77-.98,1.32-1.71,1.71-.77.38-1.66.6-2.73.6s-1.96-.21-2.73-.6v.04ZM1014.99,33.71c.34-.38.51-.85.51-1.54v-1.92c0-.64-.17-1.15-.51-1.54s-.81-.56-1.45-.56-1.11.17-1.45.56c-.34.34-.51.85-.51,1.54v1.92c0,.68.17,1.15.51,1.54s.81.56,1.45.56,1.11-.17,1.45-.56Z"/>
          <path d="M1021.39,26.58c0-1.15.17-2.14.55-2.82.34-.73.9-1.28,1.66-1.62s1.75-.51,2.94-.56c.3,0,.51,0,.73-.09.17-.04.3-.17.38-.3s.13-.3.13-.51h3.16c0,.81-.13,1.5-.43,2.01s-.73.9-1.37,1.15c-.6.26-1.41.38-2.43.38-.55,0-1.02.09-1.37.26s-.6.47-.77.81c-.17.38-.26.85-.26,1.5v4.06h-2.99v-4.27h.04ZM1023.74,36.66c-.77-.38-1.32-.98-1.71-1.75-.38-.77-.6-1.67-.6-2.73v-2.14l2.43-1.71c.17-.9.55-1.54,1.07-2.01.51-.43,1.24-.68,2.13-.68s1.75.21,2.43.6c.68.38,1.19.98,1.54,1.71s.51,1.67.51,2.73v1.5c0,1.07-.21,1.97-.6,2.73-.38.77-.98,1.32-1.71,1.71-.77.38-1.66.6-2.73.6s-1.96-.21-2.73-.6l-.04.04ZM1027.92,33.71c.34-.38.51-.85.51-1.54v-1.5c0-.64-.17-1.15-.51-1.54-.34-.34-.85-.56-1.45-.56s-1.11.17-1.45.56c-.34.34-.51.85-.51,1.54v1.5c0,.68.17,1.15.51,1.54s.81.56,1.45.56,1.11-.17,1.45-.56Z"/>
          <path d="M1036.41,36.62c-.81-.43-1.41-1.03-1.79-1.84-.43-.81-.64-1.79-.64-2.95v-1.24c0-1.15.21-2.09.64-2.91.43-.81,1.02-1.41,1.79-1.84.81-.43,1.75-.64,2.86-.64.64,0,1.24.09,1.79.21s1.07.34,1.54.64.81.6,1.11,1.03l-2.01,1.92c-.3-.26-.64-.47-1.02-.6-.38-.13-.77-.21-1.19-.21-.77,0-1.37.21-1.83.64-.43.43-.64,1.03-.64,1.75v1.24c0,.77.21,1.37.64,1.79.43.43,1.02.64,1.83.64.43,0,.85-.09,1.24-.26s.73-.38.98-.68l2.01,2.05c-.3.38-.68.73-1.15.98-.47.26-.94.47-1.54.64-.55.13-1.15.21-1.79.21-1.11,0-2.05-.21-2.86-.64l.04.04Z"/>
          <path d="M1044.47,34.22c.51,0,.9-.17,1.15-.47s.43-.77.43-1.32v-7.01h2.9v7.35c0,.94-.17,1.75-.51,2.39-.34.68-.81,1.15-1.45,1.54-.64.34-1.41.51-2.3.51h-.21v-2.99h0ZM1047.71,25.38h6.06v2.99h-6.06v-2.99ZM1051.98,25.38h3.07v11.66h-3.07v-11.66Z"/>
          <path d="M1056.68,25.38h2.9l3.93,10.17-1.96,2.48-4.91-12.65h.04ZM1067.47,25.38l-5.21,14.4c-.21.56-.43.94-.73,1.28-.3.3-.64.56-1.07.68s-.94.21-1.58.21h-.68v-2.99h.68c.34,0,.6-.09.81-.21s.38-.38.51-.73l4.35-12.65s2.9,0,2.9,0Z"/>
          <path d="M1071.23,30.98l2.82,1.2-3.24,4.91h-3.54s3.97-6.11,3.97-6.11ZM1067.94,25.38h3.24l2.94,4.96-2.05,2.01-4.1-7.01-.04.04ZM1071.52,29.74h8.41v2.99h-8.41v-2.99ZM1074.17,25.38h3.07v11.66h-3.07v-11.66ZM1077.33,30.38l2.94-4.96h3.24l-4.1,7.01-2.05-2.01-.04-.04ZM1077.45,32.13l2.82-1.2,3.97,6.11h-3.54l-3.24-4.91Z"/>
          <path d="M1092.69,37.04v-7.73l.26.3-4.74,7.43h-2.69v-11.66h2.94v7.9l-.26-.3,4.74-7.65h2.65v11.66h-2.94l.04.04Z"/>
          <path d="M1098.79,25.38h3.07v11.66h-3.07v-11.66ZM1100.37,34.65h3.75c.47,0,.81-.13,1.07-.34s.38-.51.38-.9h0c0-.43-.13-.73-.38-.94-.26-.21-.6-.3-1.07-.3h-3.75v-2.39h3.75c.38,0,.68-.09.9-.26s.3-.43.3-.73-.09-.56-.3-.73c-.21-.17-.51-.26-.9-.26h-3.8v-2.39h4.44c1.15,0,2.09.26,2.69.77.64.51.94,1.24.94,2.14,0,.73-.17,1.28-.55,1.75-.38.47-.94.77-1.62.9.77.17,1.37.51,1.79,1.07s.64,1.24.64,2.05h0c0,.98-.34,1.71-1.02,2.26s-1.66.77-2.9.77h-4.39v-2.39l.04-.09Z"/>
          <path d="M1111.63,36.36c-.6-.6-.94-1.5-.94-2.73s.34-2.01,1.02-2.61c.68-.6,1.75-.85,3.11-.85h2.94l.17,2.35h-3.07c-.47,0-.81.09-1.07.26s-.34.47-.34.85.13.68.43.85.73.26,1.32.26c.81,0,1.45-.09,1.83-.3.38-.17.6-.47.6-.85l.26,1.71c-.04.43-.26.77-.6,1.07-.34.3-.77.51-1.28.64s-1.07.21-1.62.21c-1.24,0-2.18-.3-2.82-.9l.04.04ZM1117.69,29.65c0-.56-.17-.94-.55-1.24s-.85-.43-1.54-.43c-.43,0-.85.09-1.28.21-.43.13-.81.34-1.15.6l-1.92-1.88c.47-.56,1.07-.94,1.83-1.24s1.62-.43,2.56-.43c1.02,0,1.88.17,2.6.51.73.34,1.28.85,1.66,1.5.38.64.55,1.41.55,2.35v7.52h-2.82v-7.39l.04-.09Z"/>
          <path d="M1123.58,25.38h3.07v11.66h-3.07v-11.66ZM1125.2,29.91h7.17v2.86h-7.17v-2.86ZM1130.62,25.38h3.07v11.66h-3.07v-11.66Z"/>
          <path d="M1143.97,37.04v-7.73l.26.3-4.74,7.43h-2.69v-11.66h2.94v7.9l-.26-.3,4.74-7.65h2.65v11.66h-2.94l.04.04Z"/>
          <path d="M1152.21,36.62c-.81-.43-1.41-1.03-1.83-1.79-.43-.77-.64-1.71-.64-2.82v-1.32c0-1.15.21-2.14.6-2.95.38-.81.98-1.45,1.75-1.88s1.71-.64,2.77-.64,1.92.26,2.65.77c.73.51,1.28,1.24,1.66,2.22.38.98.55,2.14.55,3.5v.77h-8.02v-2.09h5.16v-.26c-.13-.68-.34-1.2-.68-1.58-.34-.38-.81-.56-1.37-.56-.73,0-1.32.21-1.75.68-.43.43-.6,1.07-.6,1.88v1.5c0,.81.21,1.41.68,1.84.43.43,1.07.64,1.88.64.43,0,.81-.09,1.24-.21.43-.13.77-.34,1.11-.64l2.01,1.79c-.6.56-1.28.98-2.05,1.28-.77.3-1.54.47-2.3.47-1.11,0-2.09-.21-2.9-.6h.09Z"/>
          <path d="M1176.7,29.74v2.99h-8.02v-2.99h8.02Z"/>
          <path d="M1187.58,36.79c-.68-.3-1.19-.77-1.62-1.32-.43-.6-.68-1.28-.77-2.14h3.03c.04.38.26.73.55.94s.68.34,1.15.34c.51,0,.94-.09,1.19-.3.3-.17.43-.47.43-.81h0c0-.3-.13-.56-.38-.73s-.6-.26-1.02-.26h-1.28v-2.56h1.28c.34,0,.64-.09.85-.3s.3-.47.3-.85h0c0-.34-.13-.6-.34-.77-.26-.17-.55-.26-1.02-.26s-.81.13-1.11.34-.51.6-.6,1.03h-3.03c.26-1.24.77-2.22,1.58-2.91s1.88-1.03,3.16-1.03,2.39.3,3.11.85c.73.56,1.11,1.37,1.11,2.39h0c0,.6-.17,1.15-.47,1.58-.3.43-.73.77-1.32.98.64.09,1.15.38,1.49.85.34.47.55,1.07.55,1.84h0c0,1.11-.38,2.01-1.19,2.61-.77.6-1.88.9-3.33.9-.9,0-1.66-.17-2.3-.47v.04Z"/>
          <path d="M1197.31,36.36c-.6-.6-.94-1.5-.94-2.73s.34-2.01,1.02-2.61c.68-.6,1.75-.85,3.11-.85h2.94l.17,2.35h-3.07c-.47,0-.81.09-1.07.26s-.34.47-.34.85.13.68.43.85.73.26,1.32.26c.81,0,1.45-.09,1.83-.3.38-.17.6-.47.6-.85l.26,1.71c-.04.43-.26.77-.6,1.07-.34.3-.77.51-1.28.64s-1.07.21-1.62.21c-1.24,0-2.18-.3-2.82-.9l.04.04ZM1203.37,29.65c0-.56-.17-.94-.55-1.24s-.85-.43-1.54-.43c-.43,0-.85.09-1.28.21-.43.13-.81.34-1.15.6l-1.92-1.88c.47-.56,1.07-.94,1.83-1.24s1.62-.43,2.56-.43c1.02,0,1.88.17,2.6.51.73.34,1.28.85,1.66,1.5.38.64.55,1.41.55,2.35v7.52h-2.82v-7.39l.04-.09Z"/>
          <path d="M1209.21,25.38h3.07v11.66h-3.07v-11.66ZM1210.88,25.38h7.17v2.99h-7.17v-2.99ZM1216.25,25.38h3.07v11.66h-3.07v-11.66Z"/>
          <path d="M1224.36,32.86c-.64-.38-1.15-.9-1.45-1.58-.34-.68-.51-1.54-.51-2.52v-3.42h3.07v3.12c0,.6.17,1.03.51,1.37.34.3.77.47,1.37.47s1.07-.17,1.41-.56c.34-.34.51-.85.51-1.54v-.85h1.28v.85c0,1.67-.3,2.95-.9,3.8-.6.85-1.58,1.28-2.94,1.28-.9,0-1.66-.17-2.3-.56l-.04.13ZM1229.27,25.38h3.07v11.66h-3.07v-11.66Z"/>
          <path d="M1235.88,36.36c-.6-.6-.94-1.5-.94-2.73s.34-2.01,1.02-2.61c.68-.6,1.75-.85,3.11-.85h2.94l.17,2.35h-3.07c-.47,0-.81.09-1.07.26s-.34.47-.34.85.13.68.43.85.73.26,1.32.26c.81,0,1.45-.09,1.83-.3.38-.17.6-.47.6-.85l.26,1.71c-.04.43-.26.77-.6,1.07-.34.3-.77.51-1.28.64s-1.07.21-1.62.21c-1.24,0-2.18-.3-2.82-.9l.04.04ZM1241.94,29.65c0-.56-.17-.94-.55-1.24s-.85-.43-1.54-.43c-.43,0-.85.09-1.28.21-.43.13-.81.34-1.15.6l-1.92-1.88c.47-.56,1.07-.94,1.83-1.24s1.62-.43,2.56-.43c1.02,0,1.88.17,2.6.51.73.34,1.28.85,1.66,1.5.38.64.55,1.41.55,2.35v7.52h-2.82v-7.39l.04-.09Z"/>
          <path d="M1249.88,36.62c-.81-.43-1.41-1.03-1.79-1.84-.43-.81-.64-1.79-.64-2.95v-1.24c0-1.15.21-2.09.64-2.91.43-.81,1.02-1.41,1.79-1.84.81-.43,1.75-.64,2.86-.64.64,0,1.24.09,1.79.21s1.07.34,1.54.64.81.6,1.11,1.03l-2.01,1.92c-.3-.26-.64-.47-1.02-.6-.38-.13-.77-.21-1.19-.21-.77,0-1.37.21-1.83.64-.43.43-.64,1.03-.64,1.75v1.24c0,.77.21,1.37.64,1.79s1.02.64,1.83.64c.43,0,.85-.09,1.24-.26s.73-.38.98-.68l2.01,2.05c-.3.38-.68.73-1.15.98-.47.26-.94.47-1.54.64-.55.13-1.15.21-1.79.21-1.11,0-2.05-.21-2.86-.64l.04.04Z"/>
          <path d="M1257.81,25.38h9.56v2.99h-9.56v-2.99ZM1261.06,26.62h3.07v10.47h-3.07v-10.47Z"/>
          <path d="M1277.1,37.04v-7.73l.26.3-4.74,7.43h-2.69v-11.66h2.94v7.9l-.26-.3,4.74-7.65h2.65v11.66h-2.94l.04.04Z"/>
        </g>
        <g>
          <path d="M37.89,186.63c-.73-.34-1.24-.9-1.62-1.58s-.55-1.54-.55-2.48v-3.38c0-.98.17-1.79.55-2.48s.9-1.2,1.62-1.58c.73-.34,1.58-.56,2.56-.56.81,0,1.54.17,2.22.51.64.34,1.19.81,1.62,1.45s.73,1.41.9,2.31h-2.56c-.09-.43-.26-.77-.43-1.03-.21-.3-.43-.51-.73-.68s-.6-.21-.94-.21c-.47,0-.85.09-1.19.26s-.55.43-.73.77-.26.77-.26,1.24v3.38c0,.47.09.9.26,1.24s.43.6.73.77c.34.17.73.26,1.19.26.34,0,.68-.09.98-.21s.51-.38.73-.64.34-.64.43-1.07h2.56c-.17.9-.47,1.67-.9,2.31s-.94,1.11-1.62,1.45-1.37.51-2.22.51c-.98,0-1.83-.17-2.56-.56h-.04Z"/>
          <path d="M47.06,178.26h2.47v8.8h-2.47v-8.8ZM48.47,181.68h4.01v2.01h-4.01v-2.01ZM53.04,186.76c-.6-.3-1.07-.73-1.37-1.32s-.47-1.28-.47-2.09v-1.45c0-.81.17-1.5.47-2.05s.77-.98,1.37-1.28c.6-.3,1.32-.43,2.18-.43s1.58.13,2.18.43,1.07.73,1.37,1.28.47,1.24.47,2.05v1.45c0,.81-.17,1.5-.47,2.05s-.77.98-1.37,1.32c-.6.3-1.32.47-2.18.47s-1.58-.13-2.18-.47v.04ZM56.36,184.54c.26-.26.43-.68.43-1.15v-1.45c0-.51-.13-.85-.43-1.15-.26-.26-.64-.43-1.15-.43s-.85.13-1.15.43c-.26.26-.43.64-.43,1.15v1.45c0,.51.13.9.38,1.15s.64.43,1.15.43.9-.13,1.15-.43h.04Z"/>
          <path d="M61.78,186.5c-.51-.47-.73-1.15-.73-2.05s.26-1.54.81-1.97,1.37-.64,2.47-.64h2.35l.13,1.79h-2.47c-.38,0-.64.09-.85.21-.17.13-.3.34-.3.64s.13.51.34.64.6.21,1.07.21c.64,0,1.15-.09,1.45-.21s.47-.34.47-.68l.17,1.28c0,.3-.17.6-.47.81-.26.21-.6.38-1.02.51s-.85.17-1.28.17c-.98,0-1.75-.21-2.26-.68l.13-.04ZM66.65,181.46c0-.43-.13-.73-.43-.94-.3-.21-.68-.34-1.24-.34-.34,0-.68.04-1.02.17-.34.09-.64.26-.9.47l-1.54-1.41c.38-.38.85-.73,1.49-.94s1.28-.34,2.05-.34c.81,0,1.49.13,2.09.38s1.02.64,1.32,1.11c.3.47.47,1.07.47,1.75v5.68h-2.22v-5.6h-.09Z"/>
          <path d="M71.3,178.26h2.47v8.8h-2.47v-8.8ZM72.62,181.63h5.72v2.14h-5.72v-2.14ZM76.93,178.26h2.47v8.8h-2.47v-8.8Z"/>
          <path d="M93.27,181.51v2.22h-6.4v-2.22h6.4Z"/>
          <path d="M101.89,187.02c-.47-.09-.85-.26-1.19-.47s-.68-.47-.9-.77l1.58-1.45c.21.21.47.38.81.51s.64.17.98.17c.64,0,1.11-.17,1.45-.51s.51-.81.51-1.41v-.94c0-.56-.17-1.03-.51-1.32s-.81-.47-1.45-.47c-.34,0-.64.04-.98.17-.3.13-.55.26-.81.47l-1.58-1.45c.26-.3.55-.56.9-.77s.77-.38,1.24-.47.94-.17,1.45-.17c.9,0,1.66.17,2.26.47.64.3,1.11.77,1.45,1.37s.51,1.32.51,2.18v.94c0,.85-.17,1.58-.51,2.22s-.81,1.07-1.45,1.41c-.64.3-1.41.47-2.26.47-.51,0-.98-.04-1.45-.17h-.04ZM101.93,183.64v-2.01h4.1v2.01h-4.1Z"/>
          <path d="M109.78,178.26h2.47v8.8h-2.47v-8.8ZM111.11,181.63h5.72v2.14h-5.72v-2.14ZM115.42,178.26h2.47v8.8h-2.47v-8.8Z"/>
          <path d="M122.12,186.72c-.64-.3-1.11-.77-1.45-1.37s-.51-1.32-.51-2.14v-.98c0-.85.17-1.62.47-2.22s.77-1.07,1.41-1.41,1.37-.47,2.22-.47,1.49.17,2.09.6c.6.38,1.02.94,1.32,1.67s.47,1.62.47,2.65v.6h-6.4v-1.58h4.14v-.21c-.09-.51-.26-.9-.55-1.2s-.64-.43-1.11-.43c-.6,0-1.07.17-1.37.51s-.51.81-.51,1.41v1.11c0,.6.17,1.07.55,1.41s.85.51,1.49.51c.34,0,.64-.04.98-.17.34-.13.6-.26.9-.47l1.62,1.37c-.47.43-1.02.73-1.62.98s-1.19.34-1.83.34c-.9,0-1.66-.17-2.3-.47v-.04Z"/>
          <path d="M130.27,178.26h2.47v12.39h-2.47v-12.39ZM133.51,186.8c-.38-.26-.68-.64-.9-1.11l.13-2.01c0,.3.04.56.17.73s.26.34.47.47c.21.09.47.17.77.17.47,0,.81-.13,1.07-.43s.38-.68.38-1.24v-1.41c0-.56-.13-.94-.38-1.24s-.6-.43-1.07-.43c-.3,0-.55.04-.77.17-.21.13-.38.26-.47.47s-.17.47-.17.77l-.17-1.97c.26-.51.6-.9.98-1.2.43-.3.85-.43,1.37-.43.64,0,1.24.13,1.71.47.47.3.81.73,1.07,1.32s.38,1.28.38,2.09v1.41c0,.81-.13,1.5-.38,2.05s-.6.98-1.07,1.32c-.47.3-1.02.47-1.71.47-.55,0-1.02-.13-1.41-.38v-.09Z"/>
          <path d="M140.29,178.26h2.47v8.8h-2.47v-8.8ZM141.19,178.26h5.46v2.22h-5.46v-2.22Z"/>
          <path d="M149.04,186.76c-.6-.3-1.07-.73-1.37-1.32s-.47-1.28-.47-2.09v-1.45c0-.81.17-1.5.47-2.05s.77-.98,1.37-1.28,1.32-.43,2.18-.43,1.58.13,2.18.43,1.07.73,1.37,1.28.47,1.24.47,2.05v1.45c0,.81-.17,1.5-.47,2.05s-.77.98-1.37,1.32c-.6.3-1.32.47-2.18.47s-1.58-.13-2.18-.47v.04ZM152.37,184.54c.26-.26.43-.68.43-1.15v-1.45c0-.51-.13-.85-.43-1.15-.26-.26-.68-.43-1.15-.43s-.85.13-1.15.43c-.26.26-.43.64-.43,1.15v1.45c0,.51.13.9.38,1.15s.64.43,1.15.43.9-.13,1.15-.43h.04Z"/>
          <path d="M158.77,187.02c-.47-.09-.85-.26-1.19-.47-.34-.21-.68-.47-.9-.77l1.58-1.45c.21.21.47.38.81.51s.64.17.98.17c.64,0,1.11-.17,1.45-.51s.51-.81.51-1.41v-.94c0-.56-.17-1.03-.51-1.32s-.81-.47-1.45-.47c-.34,0-.64.04-.98.17-.3.13-.55.26-.81.47l-1.58-1.45c.26-.3.55-.56.9-.77s.77-.38,1.24-.47.94-.17,1.45-.17c.9,0,1.66.17,2.26.47.64.3,1.11.77,1.45,1.37s.51,1.32.51,2.18v.94c0,.85-.17,1.58-.51,2.22s-.81,1.07-1.45,1.41c-.64.3-1.41.47-2.26.47-.51,0-.98-.04-1.45-.17h-.04ZM158.81,183.64v-2.01h4.1v2.01h-4.1Z"/>
          <path d="M167.09,186.29c-.47-.51-.68-1.24-.68-2.18v-2.91c0-.94.21-1.67.68-2.18s1.11-.77,1.92-.77c.73,0,1.32.3,1.71.85s.6,1.37.6,2.44v2.52c0,.94-.21,1.67-.6,2.22s-.98.77-1.71.77c-.85,0-1.49-.26-1.92-.77ZM170.5,184.5c.17-.21.26-.56.26-.98v-1.71c0-.43-.09-.73-.26-.98-.17-.21-.43-.34-.77-.34-.3,0-.51.13-.64.34s-.21.56-.21.94v1.71c0,.43.09.73.21.98s.38.34.64.34c.34,0,.6-.13.77-.34v.04ZM170.76,175.69h2.47v13.93h-2.47v-13.93ZM173.23,186.29c-.43-.51-.6-1.24-.6-2.22v-2.52c0-1.07.21-1.84.6-2.44.38-.56.98-.85,1.71-.85.85,0,1.49.26,1.96.77s.68,1.24.68,2.18v2.91c0,.94-.21,1.67-.68,2.18s-1.11.77-1.96.77c-.73,0-1.32-.26-1.71-.77ZM174.9,184.5c.17-.21.26-.56.26-.98v-1.71c0-.43-.09-.73-.26-.94-.17-.21-.38-.34-.64-.34-.34,0-.55.13-.77.34-.17.21-.26.56-.26.94v1.71c0,.43.09.73.26.98.17.21.43.34.77.34.3,0,.51-.13.64-.34Z"/>
          <path d="M180.27,186.29c-.47-.51-.68-1.24-.68-2.18v-2.91c0-.94.21-1.67.68-2.18s1.11-.77,1.92-.77c.73,0,1.32.3,1.71.85s.6,1.37.6,2.44v2.52c0,.94-.21,1.67-.6,2.22s-.98.77-1.71.77c-.85,0-1.49-.26-1.92-.77ZM183.69,184.5c.17-.21.26-.56.26-.98v-1.71c0-.43-.09-.73-.26-.98-.17-.21-.43-.34-.77-.34-.3,0-.51.13-.64.34s-.21.56-.21.94v1.71c0,.43.09.73.21.98s.38.34.64.34c.34,0,.6-.13.77-.34v.04ZM183.94,175.69h2.47v13.93h-2.47v-13.93ZM186.46,186.29c-.43-.51-.6-1.24-.6-2.22v-2.52c0-1.07.21-1.84.6-2.44.38-.56.98-.85,1.71-.85.85,0,1.49.26,1.96.77s.68,1.24.68,2.18v2.91c0,.94-.21,1.67-.68,2.18s-1.11.77-1.96.77c-.73,0-1.32-.26-1.71-.77ZM188.08,184.5c.17-.21.26-.56.26-.98v-1.71c0-.43-.09-.73-.26-.94-.17-.21-.38-.34-.64-.34-.34,0-.55.13-.77.34-.17.21-.26.56-.26.94v1.71c0,.43.09.73.26.98.17.21.43.34.77.34.3,0,.51-.13.64-.34Z"/>
          <path d="M194.74,186.72c-.64-.3-1.11-.77-1.45-1.37s-.51-1.32-.51-2.14v-.98c0-.85.17-1.62.47-2.22s.77-1.07,1.41-1.41,1.37-.47,2.22-.47,1.49.17,2.09.6c.6.38,1.02.94,1.32,1.67s.47,1.62.47,2.65v.6h-6.4v-1.58h4.14v-.21c-.09-.51-.26-.9-.55-1.2s-.64-.43-1.11-.43c-.6,0-1.07.17-1.37.51s-.51.81-.51,1.41v1.11c0,.6.17,1.07.55,1.41s.85.51,1.49.51c.34,0,.64-.04.98-.17.34-.13.6-.26.9-.47l1.62,1.37c-.47.43-1.02.73-1.62.98s-1.19.34-1.83.34c-.9,0-1.66-.17-2.3-.47v-.04Z"/>
          <path d="M202.93,178.26h2.47v8.8h-2.47v-8.8ZM204,181.51h4.82v2.22h-4.82v-2.22ZM206.56,183.34l2.22-.9,2.52,4.61h-2.82l-1.96-3.72h.04ZM206.56,182.02l1.62-3.76h2.56l-2.39,5.26-1.83-1.54.04.04Z"/>
          <path d="M211.93,178.26h7.59v2.22h-7.59v-2.22ZM214.49,179.16h2.47v7.9h-2.47v-7.9Z"/>
          <path d="M227.29,187.06v-5.85l.21.21-3.75,5.6h-2.13v-8.8h2.35v5.98l-.21-.21,3.8-5.77h2.13v8.8h-2.35l-.04.04Z"/>
          <path d="M232.16,178.26h2.47v8.8h-2.47v-8.8ZM233.44,185.27h2.99c.38,0,.64-.09.85-.26s.3-.38.3-.68h0c0-.3-.09-.56-.3-.68s-.47-.26-.85-.26h-2.99v-1.84h2.99c.3,0,.55-.09.73-.21s.26-.34.26-.56-.09-.43-.26-.56-.38-.17-.68-.17h-3.03v-1.84h3.54c.94,0,1.66.17,2.18.56s.77.94.77,1.62c0,.56-.17.98-.47,1.32s-.73.56-1.28.68c.6.13,1.07.38,1.41.81s.51.94.51,1.54h0c0,.73-.26,1.28-.81,1.71-.55.38-1.32.6-2.3.6h-3.5v-1.84l-.04.04Z"/>
          <path d="M242.14,178.26h2.47v8.8h-2.47v-8.8ZM243.46,181.63h5.72v2.14h-5.72v-2.14ZM247.77,178.26h2.47v8.8h-2.47v-8.8Z"/>
          <path d="M252.72,178.26h2.47v8.8h-2.47v-8.8ZM253.36,184.84h3.11c.3,0,.51-.09.68-.26s.26-.43.26-.73c0-.21,0-.38-.13-.51s-.21-.26-.34-.34c-.13-.09-.3-.13-.51-.13h-3.11v-2.01h3.2c.64,0,1.19.13,1.71.38.51.26.85.64,1.15,1.11s.43,1.03.43,1.62-.13,1.15-.38,1.62-.64.81-1.15,1.11-1.07.38-1.71.38h-3.2v-2.26ZM260.87,178.26h2.47v8.8h-2.47v-8.8Z"/>
          <path d="M271.33,187.06v-5.85l.21.21-3.75,5.6h-2.13v-8.8h2.35v5.98l-.21-.21,3.8-5.77h2.13v8.8h-2.35l-.04.04ZM267.36,175.99c-.51-.56-.73-1.41-.73-2.52h2.01c0,.56.09.98.21,1.28.17.3.38.43.68.43h.17c.3,0,.55-.13.68-.43.17-.3.21-.68.21-1.28h2.01c0,1.11-.26,1.97-.73,2.52s-1.24.85-2.22.85h-.17c-.98,0-1.71-.3-2.22-.85h.09Z"/>
          <path d="M282.42,187.02c-.47-.09-.85-.26-1.19-.47s-.68-.47-.9-.77l1.58-1.45c.21.21.47.38.81.51s.64.17.98.17c.64,0,1.11-.17,1.45-.51s.51-.81.51-1.41v-.94c0-.56-.17-1.03-.51-1.32s-.81-.47-1.45-.47c-.34,0-.64.04-.98.17-.3.13-.55.26-.81.47l-1.58-1.45c.26-.3.55-.56.9-.77s.77-.38,1.24-.47.94-.17,1.45-.17c.9,0,1.66.17,2.26.47.64.3,1.11.77,1.45,1.37s.51,1.32.51,2.18v.94c0,.85-.17,1.58-.51,2.22s-.81,1.07-1.45,1.41c-.64.3-1.41.47-2.26.47-.51,0-.98-.04-1.45-.17h-.04ZM282.46,183.64v-2.01h4.1v2.01h-4.1Z"/>
          <path d="M289.2,184.88c.38,0,.68-.13.94-.34s.34-.56.34-.98v-5.3h2.3v5.55c0,.73-.13,1.32-.38,1.79s-.64.9-1.15,1.15-1.11.38-1.83.38h-.17v-2.22l-.04-.04ZM291.81,178.26h4.86v2.22h-4.86v-2.22ZM295.22,178.26h2.47v8.8h-2.47v-8.8Z"/>
          <path d="M301.88,186.72c-.64-.3-1.11-.77-1.45-1.37s-.51-1.32-.51-2.14v-.98c0-.85.17-1.62.47-2.22s.77-1.07,1.41-1.41,1.37-.47,2.22-.47,1.49.17,2.09.6c.6.38,1.02.94,1.32,1.67s.47,1.62.47,2.65v.6h-6.4v-1.58h4.14v-.21c-.09-.51-.26-.9-.55-1.2s-.64-.43-1.11-.43c-.6,0-1.07.17-1.37.51s-.51.81-.51,1.41v1.11c0,.6.17,1.07.55,1.41s.85.51,1.49.51c.34,0,.64-.04.98-.17.34-.13.6-.26.9-.47l1.62,1.37c-.47.43-1.02.73-1.62.98s-1.19.34-1.83.34c-.9,0-1.66-.17-2.3-.47v-.04Z"/>
          <path d="M310.07,178.26h2.47v8.8h-2.47v-8.8ZM311.14,181.51h4.82v2.22h-4.82v-2.22ZM313.7,183.34l2.22-.9,2.52,4.61h-2.82l-1.96-3.72h.04ZM313.7,182.02l1.62-3.76h2.56l-2.39,5.26-1.83-1.54.04.04Z"/>
          <path d="M319.11,178.26h7.59v2.22h-7.59v-2.22ZM321.67,179.16h2.47v7.9h-2.47v-7.9Z"/>
          <path d="M328.76,178.26h2.47v12.39h-2.47v-12.39ZM332,186.8c-.38-.26-.68-.64-.9-1.11l.13-2.01c0,.3.04.56.17.73s.26.34.47.47c.21.09.47.17.77.17.47,0,.81-.13,1.07-.43s.38-.68.38-1.24v-1.41c0-.56-.13-.94-.38-1.24s-.6-.43-1.07-.43c-.3,0-.55.04-.77.17-.21.13-.38.26-.47.47s-.17.47-.17.77l-.17-1.97c.26-.51.6-.9.98-1.2.43-.3.85-.43,1.37-.43.64,0,1.24.13,1.71.47.47.3.81.73,1.07,1.32s.38,1.28.38,2.09v1.41c0,.81-.13,1.5-.38,2.05s-.6.98-1.07,1.32c-.47.3-1.02.47-1.71.47-.55,0-1.02-.13-1.41-.38v-.09Z"/>
          <path d="M340.36,186.76c-.6-.3-1.07-.73-1.37-1.32s-.47-1.28-.47-2.09v-1.45c0-.81.17-1.5.47-2.05s.77-.98,1.37-1.28,1.32-.43,2.18-.43,1.58.13,2.18.43,1.07.73,1.37,1.28.47,1.24.47,2.05v1.45c0,.81-.17,1.5-.47,2.05s-.77.98-1.37,1.32c-.6.3-1.32.47-2.18.47s-1.58-.13-2.18-.47v.04ZM343.69,184.54c.26-.26.43-.68.43-1.15v-1.45c0-.51-.13-.85-.43-1.15-.26-.26-.68-.43-1.15-.43s-.85.13-1.15.43c-.26.26-.43.64-.43,1.15v1.45c0,.51.13.9.38,1.15s.64.43,1.15.43.9-.13,1.15-.43h.04Z"/>
          <path d="M347.66,178.26h7.59v2.22h-7.59v-2.22ZM350.22,179.16h2.47v7.9h-2.47v-7.9Z"/>
          <path d="M357.35,178.26h2.47v12.39h-2.47v-12.39ZM360.55,186.8c-.38-.26-.68-.64-.9-1.11l.13-2.01c0,.3.04.56.17.73s.26.34.47.47c.21.09.47.17.77.17.47,0,.81-.13,1.07-.43s.38-.68.38-1.24v-1.41c0-.56-.13-.94-.38-1.24s-.6-.43-1.07-.43c-.3,0-.55.04-.77.17-.21.13-.38.26-.47.47s-.17.47-.17.77l-.17-1.97c.26-.51.6-.9.98-1.2.43-.3.85-.43,1.37-.43.64,0,1.24.13,1.71.47.47.3.81.73,1.07,1.32s.38,1.28.38,2.09v1.41c0,.81-.13,1.5-.38,2.05s-.6.98-1.07,1.32c-.47.3-1.02.47-1.71.47-.55,0-1.02-.13-1.41-.38v-.09Z"/>
          <path d="M367.63,186.5c-.51-.47-.73-1.15-.73-2.05s.26-1.54.81-1.97,1.37-.64,2.47-.64h2.35l.13,1.79h-2.47c-.38,0-.64.09-.85.21-.17.13-.3.34-.3.64s.13.51.34.64.6.21,1.07.21c.64,0,1.15-.09,1.45-.21s.47-.34.47-.68l.17,1.28c0,.3-.17.6-.47.81-.26.21-.6.38-1.02.51s-.85.17-1.28.17c-.98,0-1.75-.21-2.26-.68l.13-.04ZM372.49,181.46c0-.43-.13-.73-.43-.94-.3-.21-.68-.34-1.24-.34-.34,0-.68.04-1.02.17-.34.09-.64.26-.9.47l-1.54-1.41c.38-.38.85-.73,1.49-.94s1.28-.34,2.05-.34c.81,0,1.49.13,2.09.38s1.02.64,1.32,1.11c.3.47.47,1.07.47,1.75v5.68h-2.22v-5.6h-.09Z"/>
          <path d="M378.81,186.72c-.64-.3-1.11-.77-1.45-1.41s-.51-1.37-.51-2.22v-.94c0-.85.17-1.58.51-2.18s.81-1.07,1.45-1.37c.64-.3,1.41-.47,2.26-.47.51,0,.98.04,1.45.17s.85.26,1.24.47.64.47.9.77l-1.58,1.45c-.21-.21-.51-.34-.81-.47s-.64-.17-.98-.17c-.64,0-1.11.17-1.45.47-.34.3-.51.77-.51,1.32v.94c0,.6.17,1.03.51,1.37.34.3.81.47,1.45.47.34,0,.68-.04.98-.17s.55-.3.81-.51l1.58,1.54c-.26.3-.55.56-.9.77s-.77.38-1.19.47c-.47.09-.94.17-1.45.17-.9,0-1.66-.17-2.26-.47h-.04Z"/>
          <path d="M386.32,178.26h2.47v8.8h-2.47v-8.8ZM387.64,178.26h5.72v2.22h-5.72v-2.22ZM391.95,178.26h2.47v8.8h-2.47v-8.8Z"/>
          <path d="M398.52,186.76c-.6-.3-1.07-.73-1.37-1.32s-.47-1.28-.47-2.09v-1.45c0-.81.17-1.5.47-2.05s.77-.98,1.37-1.28,1.32-.43,2.18-.43,1.58.13,2.18.43,1.07.73,1.37,1.28.47,1.24.47,2.05v1.45c0,.81-.17,1.5-.47,2.05s-.77.98-1.37,1.32c-.6.3-1.32.47-2.18.47s-1.58-.13-2.18-.47v.04ZM401.85,184.54c.26-.26.43-.68.43-1.15v-1.45c0-.51-.13-.85-.43-1.15-.26-.26-.68-.43-1.15-.43s-.85.13-1.15.43c-.26.26-.43.64-.43,1.15v1.45c0,.51.13.9.38,1.15s.64.43,1.15.43.9-.13,1.15-.43h.04Z"/>
          <path d="M406.97,178.26h2.47v12.39h-2.47v-12.39ZM410.17,186.8c-.38-.26-.68-.64-.9-1.11l.13-2.01c0,.3.04.56.17.73s.26.34.47.47c.21.09.47.17.77.17.47,0,.81-.13,1.07-.43s.38-.68.38-1.24v-1.41c0-.56-.13-.94-.38-1.24s-.6-.43-1.07-.43c-.3,0-.55.04-.77.17-.21.13-.38.26-.47.47s-.17.47-.17.77l-.17-1.97c.26-.51.6-.9.98-1.2.43-.3.85-.43,1.37-.43.64,0,1.24.13,1.71.47.47.3.81.73,1.07,1.32s.38,1.28.38,2.09v1.41c0,.81-.13,1.5-.38,2.05s-.6.98-1.07,1.32c-.47.3-1.02.47-1.71.47-.55,0-1.02-.13-1.41-.38v-.09Z"/>
          <path d="M415.8,178.26h7.59v2.22h-7.59v-2.22ZM418.4,179.16h2.47v7.9h-2.47v-7.9Z"/>
        </g>
        <g>
          <path d="M888.9,92.42h14v2.99h-14v-2.99ZM888.9,92.42h2.99v6.37h-2.99v-6.37ZM888.99,92.42h.26c.68,0,1.19-.3,1.58-.94s.55-1.5.55-2.65v-9.78h3.07v9.31c0,1.37-.17,2.52-.55,3.46-.38.94-.94,1.67-1.66,2.18s-1.66.73-2.77.73h-.51v-2.31h.04ZM893.17,79h7.13v2.99h-7.13v-2.99ZM898.97,79h3.07v16.36h-3.07v-16.36ZM900.89,92.42h2.99v6.37h-2.99v-6.37Z"/>
          <path d="M907.93,94.94c-.77-.38-1.32-.98-1.71-1.75s-.6-1.67-.6-2.73v-1.92c0-1.07.21-1.97.6-2.73s.98-1.32,1.71-1.71c.77-.38,1.66-.6,2.73-.6s1.96.21,2.73.6,1.32.98,1.71,1.71c.38.77.6,1.67.6,2.73v1.92c0,1.07-.21,1.97-.6,2.73s-.98,1.32-1.71,1.71c-.77.38-1.66.6-2.73.6s-1.96-.21-2.73-.6v.04ZM912.12,92.03c.34-.38.51-.85.51-1.54v-1.92c0-.64-.17-1.15-.51-1.54s-.81-.56-1.45-.56-1.11.17-1.45.56c-.34.34-.51.85-.51,1.54v1.92c0,.68.17,1.15.51,1.54s.81.56,1.45.56,1.11-.17,1.45-.56Z"/>
          <path d="M920.65,94.9c-.81-.43-1.41-1.03-1.79-1.84-.43-.81-.64-1.79-.64-2.95v-1.24c0-1.15.21-2.09.64-2.91.43-.81,1.02-1.41,1.79-1.84.81-.43,1.75-.64,2.86-.64.64,0,1.24.09,1.79.21.55.13,1.07.34,1.54.64s.81.6,1.11,1.03l-2.01,1.92c-.3-.26-.64-.47-1.02-.6-.38-.13-.77-.21-1.19-.21-.77,0-1.37.21-1.83.64-.43.43-.64,1.03-.64,1.75v1.24c0,.77.21,1.37.64,1.79.43.43,1.02.64,1.83.64.43,0,.85-.09,1.24-.26.38-.17.73-.38.98-.68l2.01,2.05c-.3.38-.68.73-1.15.98s-.94.47-1.54.64c-.55.13-1.15.21-1.79.21-1.11,0-2.05-.21-2.86-.64l.04.04Z"/>
          <path d="M928.59,83.7h9.56v2.99h-9.56v-2.99ZM931.79,84.94h3.07v10.47h-3.07v-10.47Z"/>
          <path d="M941.09,94.64c-.6-.6-.94-1.5-.94-2.73s.34-2.01,1.02-2.61c.68-.6,1.75-.85,3.11-.85h2.94l.17,2.35h-3.07c-.47,0-.81.09-1.07.26s-.34.47-.34.85.13.68.43.85.73.26,1.32.26c.81,0,1.45-.09,1.83-.3.38-.17.6-.47.6-.85l.26,1.71c-.04.43-.26.77-.6,1.07s-.77.51-1.28.64c-.51.13-1.07.21-1.62.21-1.24,0-2.18-.3-2.82-.9l.04.04ZM947.15,87.98c0-.56-.17-.94-.55-1.24s-.85-.43-1.54-.43c-.43,0-.85.09-1.28.21-.43.13-.81.34-1.15.6l-1.92-1.88c.47-.56,1.07-.94,1.83-1.24.77-.3,1.62-.43,2.56-.43,1.02,0,1.88.17,2.6.51s1.28.85,1.66,1.5.55,1.41.55,2.35v7.52h-2.82v-7.39l.04-.09Z"/>
          <path d="M952.99,83.7h3.07v11.66h-3.07v-11.66ZM954.57,92.97h3.75c.47,0,.81-.13,1.07-.34s.38-.51.38-.9h0c0-.43-.13-.73-.38-.94s-.6-.3-1.07-.3h-3.75v-2.39h3.75c.38,0,.68-.09.9-.26.21-.17.3-.43.3-.73s-.09-.56-.3-.73-.51-.26-.9-.26h-3.8v-2.39h4.44c1.15,0,2.09.26,2.69.77.64.51.94,1.24.94,2.14,0,.73-.17,1.28-.55,1.75-.38.47-.94.77-1.62.9.77.17,1.37.51,1.79,1.07.43.56.64,1.24.64,2.05h0c0,.98-.34,1.71-1.02,2.26s-1.66.77-2.9.77h-4.39v-2.39l.04-.09Z"/>
          <path d="M965.49,83.7h3.07v11.66h-3.07v-11.66ZM966.82,88.06h6.02v2.99h-6.02v-2.99ZM970.02,90.45l2.82-1.2,3.16,6.11h-3.54l-2.43-4.91ZM970.06,88.66l2.05-4.96h3.24l-2.99,7.01-2.3-2.01v-.04Z"/>
          <path d="M977.74,94.64c-.6-.6-.94-1.5-.94-2.73s.34-2.01,1.02-2.61c.68-.6,1.75-.85,3.11-.85h2.94l.17,2.35h-3.07c-.47,0-.81.09-1.07.26s-.34.47-.34.85.13.68.43.85.73.26,1.32.26c.81,0,1.45-.09,1.83-.3.38-.17.6-.47.6-.85l.26,1.71c-.04.43-.26.77-.6,1.07s-.77.51-1.28.64c-.51.13-1.07.21-1.62.21-1.24,0-2.18-.3-2.82-.9l.04.04ZM983.8,87.98c0-.56-.17-.94-.55-1.24s-.85-.43-1.54-.43c-.43,0-.85.09-1.28.21-.43.13-.81.34-1.15.6l-1.92-1.88c.47-.56,1.07-.94,1.83-1.24.77-.3,1.62-.43,2.56-.43,1.02,0,1.88.17,2.6.51s1.28.85,1.66,1.5.55,1.41.55,2.35v7.52h-2.82v-7.39l.04-.09Z"/>
          <path d="M995.83,83.7h3.07v11.66h-3.07v-11.66ZM997.49,83.7h7.17v2.99h-7.17v-2.99ZM1002.91,83.7h3.07v11.66h-3.07v-11.66Z"/>
          <path d="M1011.15,94.94c-.77-.38-1.32-.98-1.71-1.75s-.6-1.67-.6-2.73v-1.92c0-1.07.21-1.97.6-2.73s.98-1.32,1.71-1.71c.77-.38,1.66-.6,2.73-.6s1.96.21,2.73.6,1.32.98,1.71,1.71c.38.77.6,1.67.6,2.73v1.92c0,1.07-.21,1.97-.6,2.73s-.98,1.32-1.71,1.71c-.77.38-1.66.6-2.73.6s-1.96-.21-2.73-.6v.04ZM1015.29,92.03c.34-.38.51-.85.51-1.54v-1.92c0-.64-.17-1.15-.51-1.54s-.81-.56-1.45-.56-1.11.17-1.45.56c-.34.34-.51.85-.51,1.54v1.92c0,.68.17,1.15.51,1.54s.81.56,1.45.56,1.11-.17,1.45-.56Z"/>
          <path d="M1027.92,83.7h3.07v11.66h-3.07v-11.66ZM1029.5,92.97h3.75c.47,0,.81-.13,1.07-.34s.38-.51.38-.9h0c0-.43-.13-.73-.38-.94s-.6-.3-1.07-.3h-3.75v-2.39h3.75c.38,0,.68-.09.9-.26.21-.17.3-.43.3-.73s-.09-.56-.3-.73-.51-.26-.9-.26h-3.8v-2.39h4.44c1.15,0,2.09.26,2.69.77.64.51.94,1.24.94,2.14,0,.73-.17,1.28-.55,1.75-.38.47-.94.77-1.62.9.77.17,1.37.51,1.79,1.07.43.56.64,1.24.64,2.05h0c0,.98-.34,1.71-1.02,2.26s-1.66.77-2.9.77h-4.39v-2.39l.04-.09Z"/>
          <path d="M1042.51,94.9c-.81-.43-1.41-1.03-1.79-1.84-.43-.81-.64-1.79-.64-2.95v-1.24c0-1.15.21-2.09.64-2.91.43-.81,1.02-1.41,1.79-1.84.81-.43,1.75-.64,2.86-.64.64,0,1.24.09,1.79.21.55.13,1.07.34,1.54.64s.81.6,1.11,1.03l-2.01,1.92c-.3-.26-.64-.47-1.02-.6-.38-.13-.77-.21-1.19-.21-.77,0-1.37.21-1.83.64-.43.43-.64,1.03-.64,1.75v1.24c0,.77.21,1.37.64,1.79.43.43,1.02.64,1.83.64.43,0,.85-.09,1.24-.26.38-.17.73-.38.98-.68l2.01,2.05c-.3.38-.68.73-1.15.98s-.94.47-1.54.64c-.55.13-1.15.21-1.79.21-1.11,0-2.05-.21-2.86-.64l.04.04Z"/>
          <path d="M1054.03,94.94c-.81-.43-1.41-1.03-1.83-1.79-.43-.77-.64-1.71-.64-2.82v-1.32c0-1.15.21-2.14.6-2.95s.98-1.45,1.75-1.88,1.71-.64,2.77-.64,1.92.26,2.65.77,1.28,1.24,1.66,2.22.55,2.14.55,3.5v.77h-8.02v-2.09h5.16v-.26c-.13-.68-.34-1.2-.68-1.58s-.81-.56-1.37-.56c-.73,0-1.32.21-1.75.68-.43.43-.6,1.07-.6,1.88v1.5c0,.81.21,1.41.68,1.84.43.43,1.07.64,1.88.64.43,0,.81-.09,1.24-.21.43-.13.77-.34,1.11-.64l2.01,1.79c-.6.56-1.28.98-2.05,1.28s-1.54.47-2.3.47c-1.11,0-2.09-.21-2.9-.6h.09Z"/>
          <path d="M1071.44,95.37v-7.73l.26.3-4.74,7.43h-2.69v-11.66h2.94v7.9l-.26-.3,4.74-7.65h2.65v11.66h-2.94l.04.04ZM1066.45,80.71c-.6-.73-.94-1.88-.94-3.38h2.52c0,.73.09,1.32.3,1.67.21.38.47.56.9.56h.21c.38,0,.68-.17.9-.56.21-.38.3-.94.3-1.67h2.52c0,1.5-.3,2.61-.94,3.38s-1.54,1.11-2.77,1.11h-.21c-1.24,0-2.18-.38-2.77-1.11h0Z"/>
          <path d="M1083.94,79h3.07v16.36h-3.07v-16.36ZM1085.35,86.05h5.25c.38,0,.68-.09.98-.26s.51-.43.64-.73c.17-.3.26-.64.26-1.07s-.09-.77-.21-1.07c-.17-.3-.38-.56-.64-.73-.3-.17-.6-.26-.98-.26h-5.25v-2.99h5.16c1.02,0,1.92.21,2.69.64s1.37.98,1.79,1.75.64,1.62.64,2.65-.21,1.88-.64,2.65-1.02,1.32-1.79,1.75c-.77.43-1.66.64-2.69.64h-5.16v-2.99h-.04Z"/>
          <path d="M1099.09,94.94c-.77-.38-1.32-.98-1.71-1.75s-.6-1.67-.6-2.73v-1.92c0-1.07.21-1.97.6-2.73.38-.77.98-1.32,1.71-1.71.77-.38,1.66-.6,2.73-.6s1.96.21,2.73.6c.77.38,1.32.98,1.71,1.71.38.77.6,1.67.6,2.73v1.92c0,1.07-.21,1.97-.6,2.73-.38.77-.98,1.32-1.71,1.71-.77.38-1.66.6-2.73.6s-1.96-.21-2.73-.6v.04ZM1103.23,92.03c.34-.38.51-.85.51-1.54v-1.92c0-.64-.17-1.15-.51-1.54s-.81-.56-1.45-.56-1.11.17-1.45.56c-.34.34-.51.85-.51,1.54v1.92c0,.68.17,1.15.51,1.54s.81.56,1.45.56,1.11-.17,1.45-.56Z"/>
          <path d="M1111.76,94.9c-.81-.43-1.41-1.03-1.79-1.84-.43-.81-.64-1.79-.64-2.95v-1.24c0-1.15.21-2.09.64-2.91s1.02-1.41,1.79-1.84c.81-.43,1.75-.64,2.86-.64.64,0,1.24.09,1.79.21.55.13,1.07.34,1.54.64s.81.6,1.11,1.03l-2.01,1.92c-.3-.26-.64-.47-1.02-.6-.38-.13-.77-.21-1.19-.21-.77,0-1.37.21-1.83.64-.43.43-.64,1.03-.64,1.75v1.24c0,.77.21,1.37.64,1.79s1.02.64,1.83.64c.43,0,.85-.09,1.24-.26.38-.17.73-.38.98-.68l2.01,2.05c-.3.38-.68.73-1.15.98s-.94.47-1.54.64c-.55.13-1.15.21-1.79.21-1.11,0-2.05-.21-2.86-.64l.04.04Z"/>
          <path d="M1123.28,94.9c-.81-.43-1.41-1.03-1.79-1.84-.43-.81-.64-1.79-.64-2.95v-1.24c0-1.15.21-2.09.64-2.91s1.02-1.41,1.79-1.84c.81-.43,1.75-.64,2.86-.64.64,0,1.24.09,1.79.21.55.13,1.07.34,1.54.64s.81.6,1.11,1.03l-2.01,1.92c-.3-.26-.64-.47-1.02-.6-.38-.13-.77-.21-1.19-.21-.77,0-1.37.21-1.83.64-.43.43-.64,1.03-.64,1.75v1.24c0,.77.21,1.37.64,1.79s1.02.64,1.83.64c.43,0,.85-.09,1.24-.26.38-.17.73-.38.98-.68l2.01,2.05c-.3.38-.68.73-1.15.98s-.94.47-1.54.64c-.55.13-1.15.21-1.79.21-1.11,0-2.05-.21-2.86-.64l.04.04Z"/>
          <path d="M1139.79,95.37v-7.73l.26.3-4.74,7.43h-2.69v-11.66h2.94v7.9l-.26-.3,4.74-7.65h2.65v11.66h-2.94l.04.04Z"/>
          <path d="M1153.02,95.37v-7.73l.26.3-4.74,7.43h-2.69v-11.66h2.94v7.9l-.26-.3,4.74-7.65h2.65v11.66h-2.94l.04.04Z"/>
        </g>
        <g>
          <path d="M887.92,137.33h12.03v2.99h-12.03v-2.99ZM892.36,138.65h3.07v15.04h-3.07v-15.04Z"/>
          <path d="M901.92,153.22c-.81-.43-1.41-1.03-1.83-1.79-.43-.77-.64-1.71-.64-2.82v-1.32c0-1.15.21-2.14.6-2.95s.98-1.45,1.75-1.88,1.71-.64,2.77-.64,1.92.26,2.65.77,1.28,1.24,1.66,2.22.55,2.14.55,3.5v.77h-8.02v-2.09h5.16v-.26c-.13-.68-.34-1.2-.68-1.58s-.81-.56-1.37-.56c-.73,0-1.32.21-1.75.68-.43.43-.6,1.07-.6,1.88v1.5c0,.81.21,1.41.68,1.84.43.43,1.07.64,1.88.64.43,0,.81-.09,1.24-.21.43-.13.77-.34,1.11-.64l2.01,1.79c-.6.56-1.28.98-2.05,1.28s-1.54.47-2.3.47c-1.11,0-2.09-.21-2.9-.6h.09Z"/>
          <path d="M914.63,153.65c-.68-.13-1.28-.3-1.88-.56s-1.11-.51-1.54-.85l1.92-2.39c.55.34,1.15.64,1.75.81s1.19.3,1.75.3c.73,0,1.28-.09,1.66-.26s.6-.38.6-.68c0-.26-.09-.47-.26-.6s-.38-.21-.68-.3-.64-.09-1.15-.17h-.43c-.13,0-.26,0-.43-.04h-.17c-.85-.13-1.58-.26-2.09-.43-.51-.17-.98-.47-1.32-.94-.38-.47-.55-1.15-.55-2.05,0-.77.17-1.45.55-2.01.38-.56.94-.98,1.62-1.28s1.58-.43,2.6-.43c.6,0,1.19.04,1.79.17.6.13,1.15.3,1.71.51.55.21,1.02.51,1.49.81l-1.83,2.22c-.51-.3-1.07-.51-1.62-.68s-1.11-.21-1.58-.21c-.64,0-1.11.09-1.45.21s-.51.34-.51.6c0,.21.09.34.26.47s.43.17.68.26c.26.04.68.09,1.19.17h.6c.9.09,1.66.26,2.22.43.55.17,1.07.51,1.45.98s.6,1.24.6,2.18c0,.81-.21,1.5-.6,2.09s-.98,1.03-1.71,1.32c-.77.3-1.66.47-2.73.47-.68,0-1.37-.04-2.05-.17l.13.04Z"/>
          <path d="M923.25,141.98h5.72v2.65h-5.72v-2.65ZM925.17,152.96c-.47-.51-.73-1.28-.73-2.31v-12.05h3.07v11.28c0,.3.04.51.17.64.13.17.26.21.51.21h.77v2.99h-1.54c-1.02,0-1.79-.26-2.26-.77h0Z"/>
          <path d="M939.72,146.34v2.99h-8.02v-2.99h8.02Z"/>
          <path d="M942.28,150.83h11.48v2.86h-11.48v-2.86ZM942.28,150.83h2.73v5.81h-2.73v-5.81ZM942.71,150.83h.26c.38,0,.68-.13.9-.34s.3-.56.38-1.03c.04-.43.09-1.03.09-1.79v-5.68h3.07v6.45c0,1.24-.3,2.18-.94,2.82s-1.54.94-2.69.94h-.26l-.77-1.41-.04.04ZM945.65,141.98h5.63v2.86h-5.63v-2.86ZM950.09,141.98h3.07v11.66h-3.07v-11.66ZM951.97,150.83h2.73v5.81h-2.73v-5.81Z"/>
          <path d="M957.3,141.98h3.07v16.45h-3.07v-16.45ZM961.35,153.35c-.51-.34-.85-.85-1.11-1.5l.17-2.69c0,.38.09.73.21.98s.34.47.6.64.55.21.94.21c.6,0,1.02-.17,1.37-.56s.47-.94.47-1.62v-1.84c0-.73-.17-1.28-.47-1.67s-.77-.6-1.37-.6c-.38,0-.68.09-.94.21s-.47.34-.6.64c-.13.26-.21.6-.21,1.03l-.26-2.61c.3-.68.73-1.2,1.24-1.58s1.07-.56,1.71-.56c.81,0,1.54.21,2.13.6s1.02.98,1.32,1.75c.3.77.47,1.67.47,2.78v1.88c0,1.07-.17,1.97-.47,2.73s-.77,1.32-1.32,1.71c-.6.38-1.28.6-2.13.6-.68,0-1.28-.17-1.79-.51l.04-.04Z"/>
          <path d="M970.23,152.96c-.6-.6-.94-1.5-.94-2.73s.34-2.01,1.02-2.61,1.75-.85,3.11-.85h2.94l.17,2.35h-3.07c-.47,0-.81.09-1.07.26s-.34.47-.34.85.13.68.43.85.73.26,1.32.26c.81,0,1.45-.09,1.83-.3.38-.17.6-.47.6-.85l.26,1.71c-.04.43-.26.77-.6,1.07s-.77.51-1.28.64-1.07.21-1.62.21c-1.24,0-2.18-.3-2.82-.9l.04.04ZM976.29,146.26c0-.56-.17-.94-.55-1.24s-.85-.43-1.54-.43c-.43,0-.85.09-1.28.21s-.81.34-1.15.6l-1.92-1.88c.47-.56,1.07-.94,1.83-1.24s1.62-.43,2.56-.43c1.02,0,1.88.17,2.6.51.73.34,1.28.85,1.66,1.5.38.64.55,1.41.55,2.35v7.52h-2.82v-7.39l.04-.09Z"/>
          <path d="M989.26,153.69v-7.73l.26.3-4.74,7.43h-2.69v-11.66h2.94v7.9l-.26-.3,4.74-7.65h2.65v11.66h-2.94l.04.04ZM984.31,138.99c-.6-.73-.94-1.88-.94-3.38h2.52c0,.73.09,1.32.3,1.67.21.38.47.56.9.56h.21c.38,0,.68-.17.9-.56s.3-.94.3-1.67h2.52c0,1.5-.3,2.61-.94,3.38s-1.54,1.11-2.77,1.11h-.21c-1.24,0-2.18-.38-2.77-1.11h0Z"/>
          <path d="M995.4,141.98h3.07v11.66h-3.07v-11.66ZM996.98,151.3h3.75c.47,0,.81-.13,1.07-.34.26-.21.38-.51.38-.9h0c0-.43-.13-.73-.38-.94-.26-.21-.6-.3-1.07-.3h-3.75v-2.39h3.75c.38,0,.68-.09.9-.26s.3-.43.3-.73-.09-.56-.3-.73c-.21-.17-.51-.26-.9-.26h-3.8v-2.39h4.44c1.15,0,2.09.26,2.69.77.64.51.94,1.24.94,2.14,0,.73-.17,1.28-.55,1.75-.38.47-.94.77-1.62.9.77.17,1.37.51,1.79,1.07.43.56.64,1.24.64,2.05h0c0,.98-.34,1.71-1.02,2.26s-1.66.77-2.9.77h-4.39v-2.39l.04-.09Z"/>
        </g>
        <rect y="196.12" width="439.01" height=".81"/>
      </g>
    </g>
  </g>
</svg>